<?xml version="1.0" encoding="utf-8" standalone="no"?>
<!DOCTYPE svg PUBLIC "-//W3C//DTD SVG 1.1//EN"
  "http://www.w3.org/Graphics/SVG/1.1/DTD/svg11.dtd">
<!-- Created with matplotlib (https://matplotlib.org/) -->
<svg height="345.6pt" version="1.1" viewBox="0 0 460.8 345.6" width="460.8pt" xmlns="http://www.w3.org/2000/svg" xmlns:xlink="http://www.w3.org/1999/xlink">
 <defs>
  <style type="text/css">
*{stroke-linecap:butt;stroke-linejoin:round;}
  </style>
 </defs>
 <g id="figure_1">
  <g id="patch_1">
   <path d="M 0 345.6 
L 460.8 345.6 
L 460.8 0 
L 0 0 
z
" style="fill:#ffffff;"/>
  </g>
  <g id="axes_1">
   <g id="patch_2">
    <path d="M 57.6 307.584 
L 414.72 307.584 
L 414.72 41.472 
L 57.6 41.472 
z
" style="fill:#ffffff;"/>
   </g>
   <g id="matplotlib.axis_1">
    <g id="xtick_1">
     <g id="line2d_1">
      <path clip-path="url(#pcca5790fc9)" d="M 113.42999 307.584 
L 113.42999 41.472 
" style="fill:none;stroke:#b0b0b0;stroke-linecap:square;stroke-width:0.8;"/>
     </g>
     <g id="line2d_2">
      <defs>
       <path d="M 0 0 
L 0 3.5 
" id="m27b74da5e1" style="stroke:#000000;stroke-width:0.8;"/>
      </defs>
      <g>
       <use style="stroke:#000000;stroke-width:0.8;" x="113.42999" xlink:href="#m27b74da5e1" y="307.584"/>
      </g>
     </g>
     <g id="text_1">
      <!-- 200 -->
      <defs>
       <path d="M 19.1875 8.296875 
L 53.609375 8.296875 
L 53.609375 0 
L 7.328125 0 
L 7.328125 8.296875 
Q 12.9375 14.109375 22.625 23.890625 
Q 32.328125 33.6875 34.8125 36.53125 
Q 39.546875 41.84375 41.421875 45.53125 
Q 43.3125 49.21875 43.3125 52.78125 
Q 43.3125 58.59375 39.234375 62.25 
Q 35.15625 65.921875 28.609375 65.921875 
Q 23.96875 65.921875 18.8125 64.3125 
Q 13.671875 62.703125 7.8125 59.421875 
L 7.8125 69.390625 
Q 13.765625 71.78125 18.9375 73 
Q 24.125 74.21875 28.421875 74.21875 
Q 39.75 74.21875 46.484375 68.546875 
Q 53.21875 62.890625 53.21875 53.421875 
Q 53.21875 48.921875 51.53125 44.890625 
Q 49.859375 40.875 45.40625 35.40625 
Q 44.1875 33.984375 37.640625 27.21875 
Q 31.109375 20.453125 19.1875 8.296875 
z
" id="DejaVuSans-50"/>
       <path d="M 31.78125 66.40625 
Q 24.171875 66.40625 20.328125 58.90625 
Q 16.5 51.421875 16.5 36.375 
Q 16.5 21.390625 20.328125 13.890625 
Q 24.171875 6.390625 31.78125 6.390625 
Q 39.453125 6.390625 43.28125 13.890625 
Q 47.125 21.390625 47.125 36.375 
Q 47.125 51.421875 43.28125 58.90625 
Q 39.453125 66.40625 31.78125 66.40625 
z
M 31.78125 74.21875 
Q 44.046875 74.21875 50.515625 64.515625 
Q 56.984375 54.828125 56.984375 36.375 
Q 56.984375 17.96875 50.515625 8.265625 
Q 44.046875 -1.421875 31.78125 -1.421875 
Q 19.53125 -1.421875 13.0625 8.265625 
Q 6.59375 17.96875 6.59375 36.375 
Q 6.59375 54.828125 13.0625 64.515625 
Q 19.53125 74.21875 31.78125 74.21875 
z
" id="DejaVuSans-48"/>
      </defs>
      <g transform="translate(103.88624 322.182437)scale(0.1 -0.1)">
       <use xlink:href="#DejaVuSans-50"/>
       <use x="63.623047" xlink:href="#DejaVuSans-48"/>
       <use x="127.246094" xlink:href="#DejaVuSans-48"/>
      </g>
     </g>
    </g>
    <g id="xtick_2">
     <g id="line2d_3">
      <path clip-path="url(#pcca5790fc9)" d="M 169.266621 307.584 
L 169.266621 41.472 
" style="fill:none;stroke:#b0b0b0;stroke-linecap:square;stroke-width:0.8;"/>
     </g>
     <g id="line2d_4">
      <g>
       <use style="stroke:#000000;stroke-width:0.8;" x="169.266621" xlink:href="#m27b74da5e1" y="307.584"/>
      </g>
     </g>
     <g id="text_2">
      <!-- 400 -->
      <defs>
       <path d="M 37.796875 64.3125 
L 12.890625 25.390625 
L 37.796875 25.390625 
z
M 35.203125 72.90625 
L 47.609375 72.90625 
L 47.609375 25.390625 
L 58.015625 25.390625 
L 58.015625 17.1875 
L 47.609375 17.1875 
L 47.609375 0 
L 37.796875 0 
L 37.796875 17.1875 
L 4.890625 17.1875 
L 4.890625 26.703125 
z
" id="DejaVuSans-52"/>
      </defs>
      <g transform="translate(159.722871 322.182437)scale(0.1 -0.1)">
       <use xlink:href="#DejaVuSans-52"/>
       <use x="63.623047" xlink:href="#DejaVuSans-48"/>
       <use x="127.246094" xlink:href="#DejaVuSans-48"/>
      </g>
     </g>
    </g>
    <g id="xtick_3">
     <g id="line2d_5">
      <path clip-path="url(#pcca5790fc9)" d="M 225.103252 307.584 
L 225.103252 41.472 
" style="fill:none;stroke:#b0b0b0;stroke-linecap:square;stroke-width:0.8;"/>
     </g>
     <g id="line2d_6">
      <g>
       <use style="stroke:#000000;stroke-width:0.8;" x="225.103252" xlink:href="#m27b74da5e1" y="307.584"/>
      </g>
     </g>
     <g id="text_3">
      <!-- 600 -->
      <defs>
       <path d="M 33.015625 40.375 
Q 26.375 40.375 22.484375 35.828125 
Q 18.609375 31.296875 18.609375 23.390625 
Q 18.609375 15.53125 22.484375 10.953125 
Q 26.375 6.390625 33.015625 6.390625 
Q 39.65625 6.390625 43.53125 10.953125 
Q 47.40625 15.53125 47.40625 23.390625 
Q 47.40625 31.296875 43.53125 35.828125 
Q 39.65625 40.375 33.015625 40.375 
z
M 52.59375 71.296875 
L 52.59375 62.3125 
Q 48.875 64.0625 45.09375 64.984375 
Q 41.3125 65.921875 37.59375 65.921875 
Q 27.828125 65.921875 22.671875 59.328125 
Q 17.53125 52.734375 16.796875 39.40625 
Q 19.671875 43.65625 24.015625 45.921875 
Q 28.375 48.1875 33.59375 48.1875 
Q 44.578125 48.1875 50.953125 41.515625 
Q 57.328125 34.859375 57.328125 23.390625 
Q 57.328125 12.15625 50.6875 5.359375 
Q 44.046875 -1.421875 33.015625 -1.421875 
Q 20.359375 -1.421875 13.671875 8.265625 
Q 6.984375 17.96875 6.984375 36.375 
Q 6.984375 53.65625 15.1875 63.9375 
Q 23.390625 74.21875 37.203125 74.21875 
Q 40.921875 74.21875 44.703125 73.484375 
Q 48.484375 72.75 52.59375 71.296875 
z
" id="DejaVuSans-54"/>
      </defs>
      <g transform="translate(215.559502 322.182437)scale(0.1 -0.1)">
       <use xlink:href="#DejaVuSans-54"/>
       <use x="63.623047" xlink:href="#DejaVuSans-48"/>
       <use x="127.246094" xlink:href="#DejaVuSans-48"/>
      </g>
     </g>
    </g>
    <g id="xtick_4">
     <g id="line2d_7">
      <path clip-path="url(#pcca5790fc9)" d="M 280.939883 307.584 
L 280.939883 41.472 
" style="fill:none;stroke:#b0b0b0;stroke-linecap:square;stroke-width:0.8;"/>
     </g>
     <g id="line2d_8">
      <g>
       <use style="stroke:#000000;stroke-width:0.8;" x="280.939883" xlink:href="#m27b74da5e1" y="307.584"/>
      </g>
     </g>
     <g id="text_4">
      <!-- 800 -->
      <defs>
       <path d="M 31.78125 34.625 
Q 24.75 34.625 20.71875 30.859375 
Q 16.703125 27.09375 16.703125 20.515625 
Q 16.703125 13.921875 20.71875 10.15625 
Q 24.75 6.390625 31.78125 6.390625 
Q 38.8125 6.390625 42.859375 10.171875 
Q 46.921875 13.96875 46.921875 20.515625 
Q 46.921875 27.09375 42.890625 30.859375 
Q 38.875 34.625 31.78125 34.625 
z
M 21.921875 38.8125 
Q 15.578125 40.375 12.03125 44.71875 
Q 8.5 49.078125 8.5 55.328125 
Q 8.5 64.0625 14.71875 69.140625 
Q 20.953125 74.21875 31.78125 74.21875 
Q 42.671875 74.21875 48.875 69.140625 
Q 55.078125 64.0625 55.078125 55.328125 
Q 55.078125 49.078125 51.53125 44.71875 
Q 48 40.375 41.703125 38.8125 
Q 48.828125 37.15625 52.796875 32.3125 
Q 56.78125 27.484375 56.78125 20.515625 
Q 56.78125 9.90625 50.3125 4.234375 
Q 43.84375 -1.421875 31.78125 -1.421875 
Q 19.734375 -1.421875 13.25 4.234375 
Q 6.78125 9.90625 6.78125 20.515625 
Q 6.78125 27.484375 10.78125 32.3125 
Q 14.796875 37.15625 21.921875 38.8125 
z
M 18.3125 54.390625 
Q 18.3125 48.734375 21.84375 45.5625 
Q 25.390625 42.390625 31.78125 42.390625 
Q 38.140625 42.390625 41.71875 45.5625 
Q 45.3125 48.734375 45.3125 54.390625 
Q 45.3125 60.0625 41.71875 63.234375 
Q 38.140625 66.40625 31.78125 66.40625 
Q 25.390625 66.40625 21.84375 63.234375 
Q 18.3125 60.0625 18.3125 54.390625 
z
" id="DejaVuSans-56"/>
      </defs>
      <g transform="translate(271.396133 322.182437)scale(0.1 -0.1)">
       <use xlink:href="#DejaVuSans-56"/>
       <use x="63.623047" xlink:href="#DejaVuSans-48"/>
       <use x="127.246094" xlink:href="#DejaVuSans-48"/>
      </g>
     </g>
    </g>
    <g id="xtick_5">
     <g id="line2d_9">
      <path clip-path="url(#pcca5790fc9)" d="M 336.776514 307.584 
L 336.776514 41.472 
" style="fill:none;stroke:#b0b0b0;stroke-linecap:square;stroke-width:0.8;"/>
     </g>
     <g id="line2d_10">
      <g>
       <use style="stroke:#000000;stroke-width:0.8;" x="336.776514" xlink:href="#m27b74da5e1" y="307.584"/>
      </g>
     </g>
     <g id="text_5">
      <!-- 1000 -->
      <defs>
       <path d="M 12.40625 8.296875 
L 28.515625 8.296875 
L 28.515625 63.921875 
L 10.984375 60.40625 
L 10.984375 69.390625 
L 28.421875 72.90625 
L 38.28125 72.90625 
L 38.28125 8.296875 
L 54.390625 8.296875 
L 54.390625 0 
L 12.40625 0 
z
" id="DejaVuSans-49"/>
      </defs>
      <g transform="translate(324.051514 322.182437)scale(0.1 -0.1)">
       <use xlink:href="#DejaVuSans-49"/>
       <use x="63.623047" xlink:href="#DejaVuSans-48"/>
       <use x="127.246094" xlink:href="#DejaVuSans-48"/>
       <use x="190.869141" xlink:href="#DejaVuSans-48"/>
      </g>
     </g>
    </g>
    <g id="xtick_6">
     <g id="line2d_11">
      <path clip-path="url(#pcca5790fc9)" d="M 392.613145 307.584 
L 392.613145 41.472 
" style="fill:none;stroke:#b0b0b0;stroke-linecap:square;stroke-width:0.8;"/>
     </g>
     <g id="line2d_12">
      <g>
       <use style="stroke:#000000;stroke-width:0.8;" x="392.613145" xlink:href="#m27b74da5e1" y="307.584"/>
      </g>
     </g>
     <g id="text_6">
      <!-- 1200 -->
      <g transform="translate(379.888145 322.182437)scale(0.1 -0.1)">
       <use xlink:href="#DejaVuSans-49"/>
       <use x="63.623047" xlink:href="#DejaVuSans-50"/>
       <use x="127.246094" xlink:href="#DejaVuSans-48"/>
       <use x="190.869141" xlink:href="#DejaVuSans-48"/>
      </g>
     </g>
    </g>
    <g id="text_7">
     <!--                                         time/s                          Totally:1279.2 s -->
     <defs>
      <path id="DejaVuSans-32"/>
      <path d="M 18.3125 70.21875 
L 18.3125 54.6875 
L 36.8125 54.6875 
L 36.8125 47.703125 
L 18.3125 47.703125 
L 18.3125 18.015625 
Q 18.3125 11.328125 20.140625 9.421875 
Q 21.96875 7.515625 27.59375 7.515625 
L 36.8125 7.515625 
L 36.8125 0 
L 27.59375 0 
Q 17.1875 0 13.234375 3.875 
Q 9.28125 7.765625 9.28125 18.015625 
L 9.28125 47.703125 
L 2.6875 47.703125 
L 2.6875 54.6875 
L 9.28125 54.6875 
L 9.28125 70.21875 
z
" id="DejaVuSans-116"/>
      <path d="M 9.421875 54.6875 
L 18.40625 54.6875 
L 18.40625 0 
L 9.421875 0 
z
M 9.421875 75.984375 
L 18.40625 75.984375 
L 18.40625 64.59375 
L 9.421875 64.59375 
z
" id="DejaVuSans-105"/>
      <path d="M 52 44.1875 
Q 55.375 50.25 60.0625 53.125 
Q 64.75 56 71.09375 56 
Q 79.640625 56 84.28125 50.015625 
Q 88.921875 44.046875 88.921875 33.015625 
L 88.921875 0 
L 79.890625 0 
L 79.890625 32.71875 
Q 79.890625 40.578125 77.09375 44.375 
Q 74.3125 48.1875 68.609375 48.1875 
Q 61.625 48.1875 57.5625 43.546875 
Q 53.515625 38.921875 53.515625 30.90625 
L 53.515625 0 
L 44.484375 0 
L 44.484375 32.71875 
Q 44.484375 40.625 41.703125 44.40625 
Q 38.921875 48.1875 33.109375 48.1875 
Q 26.21875 48.1875 22.15625 43.53125 
Q 18.109375 38.875 18.109375 30.90625 
L 18.109375 0 
L 9.078125 0 
L 9.078125 54.6875 
L 18.109375 54.6875 
L 18.109375 46.1875 
Q 21.1875 51.21875 25.484375 53.609375 
Q 29.78125 56 35.6875 56 
Q 41.65625 56 45.828125 52.96875 
Q 50 49.953125 52 44.1875 
z
" id="DejaVuSans-109"/>
      <path d="M 56.203125 29.59375 
L 56.203125 25.203125 
L 14.890625 25.203125 
Q 15.484375 15.921875 20.484375 11.0625 
Q 25.484375 6.203125 34.421875 6.203125 
Q 39.59375 6.203125 44.453125 7.46875 
Q 49.3125 8.734375 54.109375 11.28125 
L 54.109375 2.78125 
Q 49.265625 0.734375 44.1875 -0.34375 
Q 39.109375 -1.421875 33.890625 -1.421875 
Q 20.796875 -1.421875 13.15625 6.1875 
Q 5.515625 13.8125 5.515625 26.8125 
Q 5.515625 40.234375 12.765625 48.109375 
Q 20.015625 56 32.328125 56 
Q 43.359375 56 49.78125 48.890625 
Q 56.203125 41.796875 56.203125 29.59375 
z
M 47.21875 32.234375 
Q 47.125 39.59375 43.09375 43.984375 
Q 39.0625 48.390625 32.421875 48.390625 
Q 24.90625 48.390625 20.390625 44.140625 
Q 15.875 39.890625 15.1875 32.171875 
z
" id="DejaVuSans-101"/>
      <path d="M 25.390625 72.90625 
L 33.6875 72.90625 
L 8.296875 -9.28125 
L 0 -9.28125 
z
" id="DejaVuSans-47"/>
      <path d="M 44.28125 53.078125 
L 44.28125 44.578125 
Q 40.484375 46.53125 36.375 47.5 
Q 32.28125 48.484375 27.875 48.484375 
Q 21.1875 48.484375 17.84375 46.4375 
Q 14.5 44.390625 14.5 40.28125 
Q 14.5 37.15625 16.890625 35.375 
Q 19.28125 33.59375 26.515625 31.984375 
L 29.59375 31.296875 
Q 39.15625 29.25 43.1875 25.515625 
Q 47.21875 21.78125 47.21875 15.09375 
Q 47.21875 7.46875 41.1875 3.015625 
Q 35.15625 -1.421875 24.609375 -1.421875 
Q 20.21875 -1.421875 15.453125 -0.5625 
Q 10.6875 0.296875 5.421875 2 
L 5.421875 11.28125 
Q 10.40625 8.6875 15.234375 7.390625 
Q 20.0625 6.109375 24.8125 6.109375 
Q 31.15625 6.109375 34.5625 8.28125 
Q 37.984375 10.453125 37.984375 14.40625 
Q 37.984375 18.0625 35.515625 20.015625 
Q 33.0625 21.96875 24.703125 23.78125 
L 21.578125 24.515625 
Q 13.234375 26.265625 9.515625 29.90625 
Q 5.8125 33.546875 5.8125 39.890625 
Q 5.8125 47.609375 11.28125 51.796875 
Q 16.75 56 26.8125 56 
Q 31.78125 56 36.171875 55.265625 
Q 40.578125 54.546875 44.28125 53.078125 
z
" id="DejaVuSans-115"/>
      <path d="M -0.296875 72.90625 
L 61.375 72.90625 
L 61.375 64.59375 
L 35.5 64.59375 
L 35.5 0 
L 25.59375 0 
L 25.59375 64.59375 
L -0.296875 64.59375 
z
" id="DejaVuSans-84"/>
      <path d="M 30.609375 48.390625 
Q 23.390625 48.390625 19.1875 42.75 
Q 14.984375 37.109375 14.984375 27.296875 
Q 14.984375 17.484375 19.15625 11.84375 
Q 23.34375 6.203125 30.609375 6.203125 
Q 37.796875 6.203125 41.984375 11.859375 
Q 46.1875 17.53125 46.1875 27.296875 
Q 46.1875 37.015625 41.984375 42.703125 
Q 37.796875 48.390625 30.609375 48.390625 
z
M 30.609375 56 
Q 42.328125 56 49.015625 48.375 
Q 55.71875 40.765625 55.71875 27.296875 
Q 55.71875 13.875 49.015625 6.21875 
Q 42.328125 -1.421875 30.609375 -1.421875 
Q 18.84375 -1.421875 12.171875 6.21875 
Q 5.515625 13.875 5.515625 27.296875 
Q 5.515625 40.765625 12.171875 48.375 
Q 18.84375 56 30.609375 56 
z
" id="DejaVuSans-111"/>
      <path d="M 34.28125 27.484375 
Q 23.390625 27.484375 19.1875 25 
Q 14.984375 22.515625 14.984375 16.5 
Q 14.984375 11.71875 18.140625 8.90625 
Q 21.296875 6.109375 26.703125 6.109375 
Q 34.1875 6.109375 38.703125 11.40625 
Q 43.21875 16.703125 43.21875 25.484375 
L 43.21875 27.484375 
z
M 52.203125 31.203125 
L 52.203125 0 
L 43.21875 0 
L 43.21875 8.296875 
Q 40.140625 3.328125 35.546875 0.953125 
Q 30.953125 -1.421875 24.3125 -1.421875 
Q 15.921875 -1.421875 10.953125 3.296875 
Q 6 8.015625 6 15.921875 
Q 6 25.140625 12.171875 29.828125 
Q 18.359375 34.515625 30.609375 34.515625 
L 43.21875 34.515625 
L 43.21875 35.40625 
Q 43.21875 41.609375 39.140625 45 
Q 35.0625 48.390625 27.6875 48.390625 
Q 23 48.390625 18.546875 47.265625 
Q 14.109375 46.140625 10.015625 43.890625 
L 10.015625 52.203125 
Q 14.9375 54.109375 19.578125 55.046875 
Q 24.21875 56 28.609375 56 
Q 40.484375 56 46.34375 49.84375 
Q 52.203125 43.703125 52.203125 31.203125 
z
" id="DejaVuSans-97"/>
      <path d="M 9.421875 75.984375 
L 18.40625 75.984375 
L 18.40625 0 
L 9.421875 0 
z
" id="DejaVuSans-108"/>
      <path d="M 32.171875 -5.078125 
Q 28.375 -14.84375 24.75 -17.8125 
Q 21.140625 -20.796875 15.09375 -20.796875 
L 7.90625 -20.796875 
L 7.90625 -13.28125 
L 13.1875 -13.28125 
Q 16.890625 -13.28125 18.9375 -11.515625 
Q 21 -9.765625 23.484375 -3.21875 
L 25.09375 0.875 
L 2.984375 54.6875 
L 12.5 54.6875 
L 29.59375 11.921875 
L 46.6875 54.6875 
L 56.203125 54.6875 
z
" id="DejaVuSans-121"/>
      <path d="M 11.71875 12.40625 
L 22.015625 12.40625 
L 22.015625 0 
L 11.71875 0 
z
M 11.71875 51.703125 
L 22.015625 51.703125 
L 22.015625 39.3125 
L 11.71875 39.3125 
z
" id="DejaVuSans-58"/>
      <path d="M 8.203125 72.90625 
L 55.078125 72.90625 
L 55.078125 68.703125 
L 28.609375 0 
L 18.3125 0 
L 43.21875 64.59375 
L 8.203125 64.59375 
z
" id="DejaVuSans-55"/>
      <path d="M 10.984375 1.515625 
L 10.984375 10.5 
Q 14.703125 8.734375 18.5 7.8125 
Q 22.3125 6.890625 25.984375 6.890625 
Q 35.75 6.890625 40.890625 13.453125 
Q 46.046875 20.015625 46.78125 33.40625 
Q 43.953125 29.203125 39.59375 26.953125 
Q 35.25 24.703125 29.984375 24.703125 
Q 19.046875 24.703125 12.671875 31.3125 
Q 6.296875 37.9375 6.296875 49.421875 
Q 6.296875 60.640625 12.9375 67.421875 
Q 19.578125 74.21875 30.609375 74.21875 
Q 43.265625 74.21875 49.921875 64.515625 
Q 56.59375 54.828125 56.59375 36.375 
Q 56.59375 19.140625 48.40625 8.859375 
Q 40.234375 -1.421875 26.421875 -1.421875 
Q 22.703125 -1.421875 18.890625 -0.6875 
Q 15.09375 0.046875 10.984375 1.515625 
z
M 30.609375 32.421875 
Q 37.25 32.421875 41.125 36.953125 
Q 45.015625 41.5 45.015625 49.421875 
Q 45.015625 57.28125 41.125 61.84375 
Q 37.25 66.40625 30.609375 66.40625 
Q 23.96875 66.40625 20.09375 61.84375 
Q 16.21875 57.28125 16.21875 49.421875 
Q 16.21875 41.5 20.09375 36.953125 
Q 23.96875 32.421875 30.609375 32.421875 
z
" id="DejaVuSans-57"/>
      <path d="M 10.6875 12.40625 
L 21 12.40625 
L 21 0 
L 10.6875 0 
z
" id="DejaVuSans-46"/>
     </defs>
     <g transform="translate(75.467031 335.860562)scale(0.1 -0.1)">
      <use xlink:href="#DejaVuSans-32"/>
      <use x="31.787109" xlink:href="#DejaVuSans-32"/>
      <use x="63.574219" xlink:href="#DejaVuSans-32"/>
      <use x="95.361328" xlink:href="#DejaVuSans-32"/>
      <use x="127.148438" xlink:href="#DejaVuSans-32"/>
      <use x="158.935547" xlink:href="#DejaVuSans-32"/>
      <use x="190.722656" xlink:href="#DejaVuSans-32"/>
      <use x="222.509766" xlink:href="#DejaVuSans-32"/>
      <use x="254.296875" xlink:href="#DejaVuSans-32"/>
      <use x="286.083984" xlink:href="#DejaVuSans-32"/>
      <use x="317.871094" xlink:href="#DejaVuSans-32"/>
      <use x="349.658203" xlink:href="#DejaVuSans-32"/>
      <use x="381.445312" xlink:href="#DejaVuSans-32"/>
      <use x="413.232422" xlink:href="#DejaVuSans-32"/>
      <use x="445.019531" xlink:href="#DejaVuSans-32"/>
      <use x="476.806641" xlink:href="#DejaVuSans-32"/>
      <use x="508.59375" xlink:href="#DejaVuSans-32"/>
      <use x="540.380859" xlink:href="#DejaVuSans-32"/>
      <use x="572.167969" xlink:href="#DejaVuSans-32"/>
      <use x="603.955078" xlink:href="#DejaVuSans-32"/>
      <use x="635.742188" xlink:href="#DejaVuSans-32"/>
      <use x="667.529297" xlink:href="#DejaVuSans-32"/>
      <use x="699.316406" xlink:href="#DejaVuSans-32"/>
      <use x="731.103516" xlink:href="#DejaVuSans-32"/>
      <use x="762.890625" xlink:href="#DejaVuSans-32"/>
      <use x="794.677734" xlink:href="#DejaVuSans-32"/>
      <use x="826.464844" xlink:href="#DejaVuSans-32"/>
      <use x="858.251953" xlink:href="#DejaVuSans-32"/>
      <use x="890.039062" xlink:href="#DejaVuSans-32"/>
      <use x="921.826172" xlink:href="#DejaVuSans-32"/>
      <use x="953.613281" xlink:href="#DejaVuSans-32"/>
      <use x="985.400391" xlink:href="#DejaVuSans-32"/>
      <use x="1017.1875" xlink:href="#DejaVuSans-32"/>
      <use x="1048.974609" xlink:href="#DejaVuSans-32"/>
      <use x="1080.761719" xlink:href="#DejaVuSans-32"/>
      <use x="1112.548828" xlink:href="#DejaVuSans-32"/>
      <use x="1144.335938" xlink:href="#DejaVuSans-32"/>
      <use x="1176.123047" xlink:href="#DejaVuSans-32"/>
      <use x="1207.910156" xlink:href="#DejaVuSans-32"/>
      <use x="1239.697266" xlink:href="#DejaVuSans-32"/>
      <use x="1271.484375" xlink:href="#DejaVuSans-116"/>
      <use x="1310.693359" xlink:href="#DejaVuSans-105"/>
      <use x="1338.476562" xlink:href="#DejaVuSans-109"/>
      <use x="1435.888672" xlink:href="#DejaVuSans-101"/>
      <use x="1497.412109" xlink:href="#DejaVuSans-47"/>
      <use x="1531.103516" xlink:href="#DejaVuSans-115"/>
      <use x="1583.203125" xlink:href="#DejaVuSans-32"/>
      <use x="1614.990234" xlink:href="#DejaVuSans-32"/>
      <use x="1646.777344" xlink:href="#DejaVuSans-32"/>
      <use x="1678.564453" xlink:href="#DejaVuSans-32"/>
      <use x="1710.351562" xlink:href="#DejaVuSans-32"/>
      <use x="1742.138672" xlink:href="#DejaVuSans-32"/>
      <use x="1773.925781" xlink:href="#DejaVuSans-32"/>
      <use x="1805.712891" xlink:href="#DejaVuSans-32"/>
      <use x="1837.5" xlink:href="#DejaVuSans-32"/>
      <use x="1869.287109" xlink:href="#DejaVuSans-32"/>
      <use x="1901.074219" xlink:href="#DejaVuSans-32"/>
      <use x="1932.861328" xlink:href="#DejaVuSans-32"/>
      <use x="1964.648438" xlink:href="#DejaVuSans-32"/>
      <use x="1996.435547" xlink:href="#DejaVuSans-32"/>
      <use x="2028.222656" xlink:href="#DejaVuSans-32"/>
      <use x="2060.009766" xlink:href="#DejaVuSans-32"/>
      <use x="2091.796875" xlink:href="#DejaVuSans-32"/>
      <use x="2123.583984" xlink:href="#DejaVuSans-32"/>
      <use x="2155.371094" xlink:href="#DejaVuSans-32"/>
      <use x="2187.158203" xlink:href="#DejaVuSans-32"/>
      <use x="2218.945312" xlink:href="#DejaVuSans-32"/>
      <use x="2250.732422" xlink:href="#DejaVuSans-32"/>
      <use x="2282.519531" xlink:href="#DejaVuSans-32"/>
      <use x="2314.306641" xlink:href="#DejaVuSans-32"/>
      <use x="2346.09375" xlink:href="#DejaVuSans-32"/>
      <use x="2377.880859" xlink:href="#DejaVuSans-32"/>
      <use x="2409.667969" xlink:href="#DejaVuSans-84"/>
      <use x="2470.486328" xlink:href="#DejaVuSans-111"/>
      <use x="2531.667969" xlink:href="#DejaVuSans-116"/>
      <use x="2570.876953" xlink:href="#DejaVuSans-97"/>
      <use x="2632.15625" xlink:href="#DejaVuSans-108"/>
      <use x="2659.939453" xlink:href="#DejaVuSans-108"/>
      <use x="2687.722656" xlink:href="#DejaVuSans-121"/>
      <use x="2746.792969" xlink:href="#DejaVuSans-58"/>
      <use x="2780.484375" xlink:href="#DejaVuSans-49"/>
      <use x="2844.107422" xlink:href="#DejaVuSans-50"/>
      <use x="2907.730469" xlink:href="#DejaVuSans-55"/>
      <use x="2971.353516" xlink:href="#DejaVuSans-57"/>
      <use x="3034.976562" xlink:href="#DejaVuSans-46"/>
      <use x="3066.763672" xlink:href="#DejaVuSans-50"/>
      <use x="3130.386719" xlink:href="#DejaVuSans-32"/>
      <use x="3162.173828" xlink:href="#DejaVuSans-115"/>
     </g>
    </g>
   </g>
   <g id="matplotlib.axis_2">
    <g id="ytick_1">
     <g id="line2d_13">
      <path clip-path="url(#pcca5790fc9)" d="M 57.6 295.167881 
L 414.72 295.167881 
" style="fill:none;stroke:#b0b0b0;stroke-linecap:square;stroke-width:0.8;"/>
     </g>
     <g id="line2d_14">
      <defs>
       <path d="M 0 0 
L -3.5 0 
" id="md66f572a1a" style="stroke:#000000;stroke-width:0.8;"/>
      </defs>
      <g>
       <use style="stroke:#000000;stroke-width:0.8;" x="57.6" xlink:href="#md66f572a1a" y="295.167881"/>
      </g>
     </g>
     <g id="text_8">
      <!-- 37.5 -->
      <defs>
       <path d="M 40.578125 39.3125 
Q 47.65625 37.796875 51.625 33 
Q 55.609375 28.21875 55.609375 21.1875 
Q 55.609375 10.40625 48.1875 4.484375 
Q 40.765625 -1.421875 27.09375 -1.421875 
Q 22.515625 -1.421875 17.65625 -0.515625 
Q 12.796875 0.390625 7.625 2.203125 
L 7.625 11.71875 
Q 11.71875 9.328125 16.59375 8.109375 
Q 21.484375 6.890625 26.8125 6.890625 
Q 36.078125 6.890625 40.9375 10.546875 
Q 45.796875 14.203125 45.796875 21.1875 
Q 45.796875 27.640625 41.28125 31.265625 
Q 36.765625 34.90625 28.71875 34.90625 
L 20.21875 34.90625 
L 20.21875 43.015625 
L 29.109375 43.015625 
Q 36.375 43.015625 40.234375 45.921875 
Q 44.09375 48.828125 44.09375 54.296875 
Q 44.09375 59.90625 40.109375 62.90625 
Q 36.140625 65.921875 28.71875 65.921875 
Q 24.65625 65.921875 20.015625 65.03125 
Q 15.375 64.15625 9.8125 62.3125 
L 9.8125 71.09375 
Q 15.4375 72.65625 20.34375 73.4375 
Q 25.25 74.21875 29.59375 74.21875 
Q 40.828125 74.21875 47.359375 69.109375 
Q 53.90625 64.015625 53.90625 55.328125 
Q 53.90625 49.265625 50.4375 45.09375 
Q 46.96875 40.921875 40.578125 39.3125 
z
" id="DejaVuSans-51"/>
       <path d="M 10.796875 72.90625 
L 49.515625 72.90625 
L 49.515625 64.59375 
L 19.828125 64.59375 
L 19.828125 46.734375 
Q 21.96875 47.46875 24.109375 47.828125 
Q 26.265625 48.1875 28.421875 48.1875 
Q 40.625 48.1875 47.75 41.5 
Q 54.890625 34.8125 54.890625 23.390625 
Q 54.890625 11.625 47.5625 5.09375 
Q 40.234375 -1.421875 26.90625 -1.421875 
Q 22.3125 -1.421875 17.546875 -0.640625 
Q 12.796875 0.140625 7.71875 1.703125 
L 7.71875 11.625 
Q 12.109375 9.234375 16.796875 8.0625 
Q 21.484375 6.890625 26.703125 6.890625 
Q 35.15625 6.890625 40.078125 11.328125 
Q 45.015625 15.765625 45.015625 23.390625 
Q 45.015625 31 40.078125 35.4375 
Q 35.15625 39.890625 26.703125 39.890625 
Q 22.75 39.890625 18.8125 39.015625 
Q 14.890625 38.140625 10.796875 36.28125 
z
" id="DejaVuSans-53"/>
      </defs>
      <g transform="translate(28.334375 298.9671)scale(0.1 -0.1)">
       <use xlink:href="#DejaVuSans-51"/>
       <use x="63.623047" xlink:href="#DejaVuSans-55"/>
       <use x="127.246094" xlink:href="#DejaVuSans-46"/>
       <use x="159.033203" xlink:href="#DejaVuSans-53"/>
      </g>
     </g>
    </g>
    <g id="ytick_2">
     <g id="line2d_15">
      <path clip-path="url(#pcca5790fc9)" d="M 57.6 263.156025 
L 414.72 263.156025 
" style="fill:none;stroke:#b0b0b0;stroke-linecap:square;stroke-width:0.8;"/>
     </g>
     <g id="line2d_16">
      <g>
       <use style="stroke:#000000;stroke-width:0.8;" x="57.6" xlink:href="#md66f572a1a" y="263.156025"/>
      </g>
     </g>
     <g id="text_9">
      <!-- 40.0 -->
      <g transform="translate(28.334375 266.955244)scale(0.1 -0.1)">
       <use xlink:href="#DejaVuSans-52"/>
       <use x="63.623047" xlink:href="#DejaVuSans-48"/>
       <use x="127.246094" xlink:href="#DejaVuSans-46"/>
       <use x="159.033203" xlink:href="#DejaVuSans-48"/>
      </g>
     </g>
    </g>
    <g id="ytick_3">
     <g id="line2d_17">
      <path clip-path="url(#pcca5790fc9)" d="M 57.6 231.144169 
L 414.72 231.144169 
" style="fill:none;stroke:#b0b0b0;stroke-linecap:square;stroke-width:0.8;"/>
     </g>
     <g id="line2d_18">
      <g>
       <use style="stroke:#000000;stroke-width:0.8;" x="57.6" xlink:href="#md66f572a1a" y="231.144169"/>
      </g>
     </g>
     <g id="text_10">
      <!-- 42.5 -->
      <g transform="translate(28.334375 234.943388)scale(0.1 -0.1)">
       <use xlink:href="#DejaVuSans-52"/>
       <use x="63.623047" xlink:href="#DejaVuSans-50"/>
       <use x="127.246094" xlink:href="#DejaVuSans-46"/>
       <use x="159.033203" xlink:href="#DejaVuSans-53"/>
      </g>
     </g>
    </g>
    <g id="ytick_4">
     <g id="line2d_19">
      <path clip-path="url(#pcca5790fc9)" d="M 57.6 199.132313 
L 414.72 199.132313 
" style="fill:none;stroke:#b0b0b0;stroke-linecap:square;stroke-width:0.8;"/>
     </g>
     <g id="line2d_20">
      <g>
       <use style="stroke:#000000;stroke-width:0.8;" x="57.6" xlink:href="#md66f572a1a" y="199.132313"/>
      </g>
     </g>
     <g id="text_11">
      <!-- 45.0 -->
      <g transform="translate(28.334375 202.931531)scale(0.1 -0.1)">
       <use xlink:href="#DejaVuSans-52"/>
       <use x="63.623047" xlink:href="#DejaVuSans-53"/>
       <use x="127.246094" xlink:href="#DejaVuSans-46"/>
       <use x="159.033203" xlink:href="#DejaVuSans-48"/>
      </g>
     </g>
    </g>
    <g id="ytick_5">
     <g id="line2d_21">
      <path clip-path="url(#pcca5790fc9)" d="M 57.6 167.120456 
L 414.72 167.120456 
" style="fill:none;stroke:#b0b0b0;stroke-linecap:square;stroke-width:0.8;"/>
     </g>
     <g id="line2d_22">
      <g>
       <use style="stroke:#000000;stroke-width:0.8;" x="57.6" xlink:href="#md66f572a1a" y="167.120456"/>
      </g>
     </g>
     <g id="text_12">
      <!-- 47.5 -->
      <g transform="translate(28.334375 170.919675)scale(0.1 -0.1)">
       <use xlink:href="#DejaVuSans-52"/>
       <use x="63.623047" xlink:href="#DejaVuSans-55"/>
       <use x="127.246094" xlink:href="#DejaVuSans-46"/>
       <use x="159.033203" xlink:href="#DejaVuSans-53"/>
      </g>
     </g>
    </g>
    <g id="ytick_6">
     <g id="line2d_23">
      <path clip-path="url(#pcca5790fc9)" d="M 57.6 135.1086 
L 414.72 135.1086 
" style="fill:none;stroke:#b0b0b0;stroke-linecap:square;stroke-width:0.8;"/>
     </g>
     <g id="line2d_24">
      <g>
       <use style="stroke:#000000;stroke-width:0.8;" x="57.6" xlink:href="#md66f572a1a" y="135.1086"/>
      </g>
     </g>
     <g id="text_13">
      <!-- 50.0 -->
      <g transform="translate(28.334375 138.907819)scale(0.1 -0.1)">
       <use xlink:href="#DejaVuSans-53"/>
       <use x="63.623047" xlink:href="#DejaVuSans-48"/>
       <use x="127.246094" xlink:href="#DejaVuSans-46"/>
       <use x="159.033203" xlink:href="#DejaVuSans-48"/>
      </g>
     </g>
    </g>
    <g id="ytick_7">
     <g id="line2d_25">
      <path clip-path="url(#pcca5790fc9)" d="M 57.6 103.096744 
L 414.72 103.096744 
" style="fill:none;stroke:#b0b0b0;stroke-linecap:square;stroke-width:0.8;"/>
     </g>
     <g id="line2d_26">
      <g>
       <use style="stroke:#000000;stroke-width:0.8;" x="57.6" xlink:href="#md66f572a1a" y="103.096744"/>
      </g>
     </g>
     <g id="text_14">
      <!-- 52.5 -->
      <g transform="translate(28.334375 106.895963)scale(0.1 -0.1)">
       <use xlink:href="#DejaVuSans-53"/>
       <use x="63.623047" xlink:href="#DejaVuSans-50"/>
       <use x="127.246094" xlink:href="#DejaVuSans-46"/>
       <use x="159.033203" xlink:href="#DejaVuSans-53"/>
      </g>
     </g>
    </g>
    <g id="ytick_8">
     <g id="line2d_27">
      <path clip-path="url(#pcca5790fc9)" d="M 57.6 71.084888 
L 414.72 71.084888 
" style="fill:none;stroke:#b0b0b0;stroke-linecap:square;stroke-width:0.8;"/>
     </g>
     <g id="line2d_28">
      <g>
       <use style="stroke:#000000;stroke-width:0.8;" x="57.6" xlink:href="#md66f572a1a" y="71.084888"/>
      </g>
     </g>
     <g id="text_15">
      <!-- 55.0 -->
      <g transform="translate(28.334375 74.884106)scale(0.1 -0.1)">
       <use xlink:href="#DejaVuSans-53"/>
       <use x="63.623047" xlink:href="#DejaVuSans-53"/>
       <use x="127.246094" xlink:href="#DejaVuSans-46"/>
       <use x="159.033203" xlink:href="#DejaVuSans-48"/>
      </g>
     </g>
    </g>
    <g id="text_16">
     <!-- temperature/°C -->
     <defs>
      <path d="M 18.109375 8.203125 
L 18.109375 -20.796875 
L 9.078125 -20.796875 
L 9.078125 54.6875 
L 18.109375 54.6875 
L 18.109375 46.390625 
Q 20.953125 51.265625 25.265625 53.625 
Q 29.59375 56 35.59375 56 
Q 45.5625 56 51.78125 48.09375 
Q 58.015625 40.1875 58.015625 27.296875 
Q 58.015625 14.40625 51.78125 6.484375 
Q 45.5625 -1.421875 35.59375 -1.421875 
Q 29.59375 -1.421875 25.265625 0.953125 
Q 20.953125 3.328125 18.109375 8.203125 
z
M 48.6875 27.296875 
Q 48.6875 37.203125 44.609375 42.84375 
Q 40.53125 48.484375 33.40625 48.484375 
Q 26.265625 48.484375 22.1875 42.84375 
Q 18.109375 37.203125 18.109375 27.296875 
Q 18.109375 17.390625 22.1875 11.75 
Q 26.265625 6.109375 33.40625 6.109375 
Q 40.53125 6.109375 44.609375 11.75 
Q 48.6875 17.390625 48.6875 27.296875 
z
" id="DejaVuSans-112"/>
      <path d="M 41.109375 46.296875 
Q 39.59375 47.171875 37.8125 47.578125 
Q 36.03125 48 33.890625 48 
Q 26.265625 48 22.1875 43.046875 
Q 18.109375 38.09375 18.109375 28.8125 
L 18.109375 0 
L 9.078125 0 
L 9.078125 54.6875 
L 18.109375 54.6875 
L 18.109375 46.1875 
Q 20.953125 51.171875 25.484375 53.578125 
Q 30.03125 56 36.53125 56 
Q 37.453125 56 38.578125 55.875 
Q 39.703125 55.765625 41.0625 55.515625 
z
" id="DejaVuSans-114"/>
      <path d="M 8.5 21.578125 
L 8.5 54.6875 
L 17.484375 54.6875 
L 17.484375 21.921875 
Q 17.484375 14.15625 20.5 10.265625 
Q 23.53125 6.390625 29.59375 6.390625 
Q 36.859375 6.390625 41.078125 11.03125 
Q 45.3125 15.671875 45.3125 23.6875 
L 45.3125 54.6875 
L 54.296875 54.6875 
L 54.296875 0 
L 45.3125 0 
L 45.3125 8.40625 
Q 42.046875 3.421875 37.71875 1 
Q 33.40625 -1.421875 27.6875 -1.421875 
Q 18.265625 -1.421875 13.375 4.4375 
Q 8.5 10.296875 8.5 21.578125 
z
M 31.109375 56 
z
" id="DejaVuSans-117"/>
      <path d="M 25 67.921875 
Q 21.09375 67.921875 18.40625 65.203125 
Q 15.71875 62.5 15.71875 58.59375 
Q 15.71875 54.734375 18.40625 52.078125 
Q 21.09375 49.421875 25 49.421875 
Q 28.90625 49.421875 31.59375 52.078125 
Q 34.28125 54.734375 34.28125 58.59375 
Q 34.28125 62.453125 31.5625 65.1875 
Q 28.859375 67.921875 25 67.921875 
z
M 25 74.21875 
Q 28.125 74.21875 31 73.015625 
Q 33.890625 71.828125 35.984375 69.578125 
Q 38.234375 67.390625 39.359375 64.59375 
Q 40.484375 61.8125 40.484375 58.59375 
Q 40.484375 52.15625 35.96875 47.6875 
Q 31.453125 43.21875 24.90625 43.21875 
Q 18.3125 43.21875 13.90625 47.609375 
Q 9.515625 52 9.515625 58.59375 
Q 9.515625 65.140625 14 69.671875 
Q 18.5 74.21875 25 74.21875 
z
" id="DejaVuSans-176"/>
      <path d="M 64.40625 67.28125 
L 64.40625 56.890625 
Q 59.421875 61.53125 53.78125 63.8125 
Q 48.140625 66.109375 41.796875 66.109375 
Q 29.296875 66.109375 22.65625 58.46875 
Q 16.015625 50.828125 16.015625 36.375 
Q 16.015625 21.96875 22.65625 14.328125 
Q 29.296875 6.6875 41.796875 6.6875 
Q 48.140625 6.6875 53.78125 8.984375 
Q 59.421875 11.28125 64.40625 15.921875 
L 64.40625 5.609375 
Q 59.234375 2.09375 53.4375 0.328125 
Q 47.65625 -1.421875 41.21875 -1.421875 
Q 24.65625 -1.421875 15.125 8.703125 
Q 5.609375 18.84375 5.609375 36.375 
Q 5.609375 53.953125 15.125 64.078125 
Q 24.65625 74.21875 41.21875 74.21875 
Q 47.75 74.21875 53.53125 72.484375 
Q 59.328125 70.75 64.40625 67.28125 
z
" id="DejaVuSans-67"/>
     </defs>
     <g transform="translate(22.254687 213.7405)rotate(-90)scale(0.1 -0.1)">
      <use xlink:href="#DejaVuSans-116"/>
      <use x="39.208984" xlink:href="#DejaVuSans-101"/>
      <use x="100.732422" xlink:href="#DejaVuSans-109"/>
      <use x="198.144531" xlink:href="#DejaVuSans-112"/>
      <use x="261.621094" xlink:href="#DejaVuSans-101"/>
      <use x="323.144531" xlink:href="#DejaVuSans-114"/>
      <use x="364.257812" xlink:href="#DejaVuSans-97"/>
      <use x="425.537109" xlink:href="#DejaVuSans-116"/>
      <use x="464.746094" xlink:href="#DejaVuSans-117"/>
      <use x="528.125" xlink:href="#DejaVuSans-114"/>
      <use x="569.207031" xlink:href="#DejaVuSans-101"/>
      <use x="630.730469" xlink:href="#DejaVuSans-47"/>
      <use x="664.421875" xlink:href="#DejaVuSans-176"/>
      <use x="714.421875" xlink:href="#DejaVuSans-67"/>
     </g>
    </g>
   </g>
   <g id="line2d_29">
    <path clip-path="url(#pcca5790fc9)" d="M 57.6 295.488 
L 58.772224 272.234588 
L 59.356465 266.587696 
L 61.136401 252.758574 
L 62.319106 250.248845 
L 62.910679 247.111683 
L 63.501587 244.589149 
L 64.094161 241.451987 
L 64.68859 240.824554 
L 66.466298 237.047155 
L 67.06361 234.537426 
L 67.654733 233.909993 
L 68.250259 231.400264 
L 68.838818 230.772831 
L 69.432706 229.517967 
L 70.022687 227.622865 
L 70.612299 226.995432 
L 71.1964 225.113135 
L 72.375855 222.603406 
L 72.966113 221.975973 
L 73.557721 220.721109 
L 74.154934 221.348541 
L 74.748364 218.198574 
L 75.339307 217.571142 
L 75.940075 218.198574 
L 76.533626 217.571142 
L 77.121414 215.688845 
L 77.713119 214.43398 
L 78.301009 214.43398 
L 79.483426 213.179115 
L 80.074338 211.92425 
L 80.663839 211.284013 
L 81.257345 208.774284 
L 81.845656 206.891987 
L 82.433144 205.637122 
L 83.019714 205.00969 
L 83.61201 203.114588 
L 84.202947 202.487155 
L 84.798235 200.604858 
L 85.392109 199.977426 
L 85.986981 195.585399 
L 86.589504 198.095129 
L 87.778033 195.585399 
L 88.36899 194.957967 
L 88.973665 190.553135 
L 89.574368 188.670838 
L 90.170191 184.266007 
L 90.753118 187.415973 
L 91.346173 189.29827 
L 93.681102 173.586851 
L 94.267553 173.586851 
L 94.856596 174.841716 
L 95.445437 177.351446 
L 96.037568 178.619115 
L 96.632023 179.246548 
L 97.222348 177.351446 
L 97.813662 177.991683 
L 98.397085 176.096581 
L 98.979259 171.077122 
L 99.568138 168.554588 
L 100.151295 165.417426 
L 100.734312 161.025399 
L 101.317075 161.652831 
L 101.903889 166.044858 
L 102.491177 168.554588 
L 103.08371 167.299723 
L 103.677733 167.927155 
L 104.268206 167.299723 
L 104.859718 161.652831 
L 105.445557 159.130297 
L 106.030579 155.993135 
L 106.614704 157.248 
L 107.204399 161.025399 
L 107.793998 162.280264 
L 108.389706 164.789993 
L 109.574629 166.044858 
L 110.16525 165.417426 
L 110.754918 166.044858 
L 111.344674 166.044858 
L 111.939328 165.417426 
L 112.529141 156.620568 
L 113.120327 160.385162 
L 113.714512 162.280264 
L 114.300653 162.907696 
L 114.888629 162.280264 
L 115.481125 162.907696 
L 116.068382 162.280264 
L 116.659387 156.620568 
L 117.244898 159.130297 
L 117.835996 159.75773 
L 118.428025 159.130297 
L 119.020652 159.75773 
L 119.61197 158.502865 
L 120.200259 157.875432 
L 120.808261 157.875432 
L 121.41245 157.248 
L 121.998769 157.248 
L 122.585033 157.875432 
L 123.169246 157.248 
L 123.756864 157.248 
L 124.347201 158.502865 
L 124.938841 159.130297 
L 126.112644 157.875432 
L 126.69973 155.993135 
L 127.287305 155.365703 
L 127.880252 152.855973 
L 128.4724 155.993135 
L 129.057625 155.993135 
L 129.643846 155.365703 
L 130.23432 155.365703 
L 130.819959 154.110838 
L 131.409813 154.73827 
L 132.012479 149.706007 
L 132.597119 152.855973 
L 133.183672 154.73827 
L 133.772262 151.588304 
L 134.359693 151.588304 
L 134.949306 149.706007 
L 135.537095 150.333439 
L 136.131004 150.333439 
L 136.725776 149.078574 
L 137.313405 150.333439 
L 137.897654 147.82371 
L 138.484654 147.196277 
L 139.069281 142.791446 
L 139.657416 140.281716 
L 140.246908 138.399419 
L 140.844791 133.367155 
L 141.428644 133.367155 
L 142.013829 132.739723 
L 142.603712 136.517122 
L 143.189363 130.229993 
L 143.774825 135.88969 
L 144.367395 137.144554 
L 144.962951 139.654284 
L 145.551247 137.771987 
L 147.933982 137.771987 
L 148.526634 139.026851 
L 149.124099 136.517122 
L 150.297319 135.262257 
L 150.884689 137.771987 
L 151.473034 137.144554 
L 152.069311 135.88969 
L 152.663609 137.144554 
L 153.263624 136.517122 
L 153.862799 136.517122 
L 154.445849 133.994588 
L 155.033159 125.19773 
L 155.61623 122.688 
L 156.1987 117.655736 
L 156.786484 124.570297 
L 157.375616 124.570297 
L 157.966343 128.975129 
L 158.556412 128.347696 
L 159.14888 129.602561 
L 160.327497 130.857426 
L 160.919098 128.975129 
L 161.516406 128.347696 
L 162.10891 129.602561 
L 162.707433 130.229993 
L 163.301607 130.229993 
L 163.893656 132.11229 
L 164.48299 127.092831 
L 165.07573 130.857426 
L 165.667933 128.975129 
L 166.257664 129.602561 
L 166.845402 130.857426 
L 167.467818 128.975129 
L 168.058397 130.229993 
L 168.645558 128.975129 
L 169.24 128.347696 
L 170.425693 128.347696 
L 171.011382 129.602561 
L 171.601846 128.347696 
L 172.187209 128.347696 
L 172.778082 122.688 
L 173.973173 116.400871 
L 174.564121 114.518574 
L 175.153033 114.518574 
L 175.741134 117.028304 
L 176.333085 118.923406 
L 176.925562 121.433135 
L 177.513 121.433135 
L 178.09591 117.655736 
L 178.680339 118.923406 
L 179.272638 121.433135 
L 179.864863 122.060568 
L 180.455736 122.060568 
L 181.043636 118.295973 
L 181.636349 121.433135 
L 182.233737 120.805703 
L 182.824597 120.805703 
L 183.412941 122.060568 
L 184.002678 119.550838 
L 184.588785 119.550838 
L 185.174761 117.655736 
L 185.768304 118.923406 
L 186.3584 118.295973 
L 186.949084 118.295973 
L 187.534576 119.550838 
L 188.119462 117.655736 
L 188.703892 119.550838 
L 189.287437 115.773439 
L 189.871402 117.028304 
L 190.450399 113.26371 
L 191.033893 111.381412 
L 191.619792 106.349149 
L 192.209792 105.094284 
L 192.794922 106.976581 
L 193.382957 110.126548 
L 194.562443 112.636277 
L 195.156729 115.146007 
L 195.753288 113.26371 
L 196.343477 114.518574 
L 196.934327 114.518574 
L 197.520808 115.773439 
L 198.704931 114.518574 
L 199.295802 115.773439 
L 199.887677 115.773439 
L 200.479019 111.381412 
L 201.073103 114.518574 
L 202.247765 112.008845 
L 202.834406 110.126548 
L 203.428342 110.75398 
L 204.024597 112.636277 
L 204.609619 105.721716 
L 205.194891 110.75398 
L 205.78365 112.008845 
L 206.372207 110.126548 
L 206.962378 110.75398 
L 207.550708 112.008845 
L 208.137329 108.858878 
L 208.725712 108.858878 
L 209.323996 106.976581 
L 209.91309 107.604013 
L 210.50007 106.349149 
L 211.089435 107.604013 
L 211.678869 106.976581 
L 212.272404 110.126548 
L 212.863247 110.75398 
L 213.456691 109.499115 
L 214.050092 109.499115 
L 214.639008 105.094284 
L 215.223031 106.349149 
L 215.807038 105.721716 
L 216.395498 105.721716 
L 216.987798 106.976581 
L 217.584859 105.094284 
L 218.173328 107.604013 
L 218.76002 103.839419 
L 219.357544 104.466851 
L 219.955283 105.721716 
L 220.541987 103.839419 
L 221.127643 104.466851 
L 221.720306 103.839419 
L 222.30794 105.721716 
L 222.900051 106.976581 
L 223.483597 105.721716 
L 224.072939 106.976581 
L 224.671747 105.721716 
L 225.261002 108.231446 
L 225.85385 106.349149 
L 226.445934 106.976581 
L 227.041402 103.839419 
L 227.629301 106.349149 
L 228.217532 105.721716 
L 228.809639 105.721716 
L 229.395192 107.604013 
L 229.99074 105.721716 
L 230.579079 105.721716 
L 231.166636 102.584554 
L 231.756457 105.094284 
L 233.528821 105.094284 
L 234.118238 106.349149 
L 234.707053 105.721716 
L 235.298 105.721716 
L 235.887245 105.094284 
L 236.479928 106.976581 
L 237.072621 103.211987 
L 237.657749 102.584554 
L 238.243507 101.32969 
L 238.839747 100.702257 
L 239.430539 103.839419 
L 240.027081 101.957122 
L 240.618308 103.839419 
L 241.21778 101.957122 
L 241.806718 101.957122 
L 242.398712 100.06202 
L 242.987878 101.32969 
L 243.578936 101.957122 
L 244.16847 100.702257 
L 244.762161 102.584554 
L 245.360235 100.702257 
L 247.117772 89.382865 
L 247.702308 87.500568 
L 248.28842 87.500568 
L 248.874852 89.382865 
L 249.467372 90.010297 
L 250.061 91.892594 
L 250.645642 91.265162 
L 251.241039 93.787696 
L 251.831696 93.787696 
L 252.430144 93.160264 
L 253.018686 95.042561 
L 253.614632 95.042561 
L 254.201502 90.010297 
L 254.786329 87.500568 
L 255.370813 84.363406 
L 255.958134 82.468304 
L 256.546885 84.990838 
L 257.726588 87.500568 
L 258.31744 89.382865 
L 258.909494 91.892594 
L 259.497148 90.63773 
L 260.675813 90.63773 
L 261.265121 86.873135 
L 263.017783 81.213439 
L 263.60549 78.076277 
L 264.193149 80.586007 
L 264.783894 81.840871 
L 265.370906 84.363406 
L 267.166881 88.128 
L 267.760141 87.500568 
L 268.353251 87.500568 
L 268.936568 85.61827 
L 269.522512 82.468304 
L 270.106718 79.958574 
L 270.691916 78.076277 
L 271.283011 75.566548 
L 271.875007 78.70371 
L 272.465258 78.70371 
L 273.059138 79.331142 
L 273.645557 78.70371 
L 274.820253 83.735973 
L 276.005111 84.990838 
L 277.193654 83.735973 
L 277.77725 86.245703 
L 278.3646 87.500568 
L 278.950828 83.095736 
L 281.286694 73.044013 
L 281.869941 72.416581 
L 283.055347 79.331142 
L 283.647003 81.213439 
L 284.238575 81.840871 
L 284.831483 80.586007 
L 285.42837 83.095736 
L 286.02295 79.331142 
L 286.618652 81.840871 
L 287.207172 79.958574 
L 287.800717 80.586007 
L 288.393604 83.095736 
L 288.989651 82.468304 
L 289.5752 84.363406 
L 290.162868 83.735973 
L 290.75235 81.213439 
L 291.342093 76.821412 
L 291.929774 79.958574 
L 292.516964 81.213439 
L 293.690965 82.468304 
L 294.284206 81.840871 
L 294.8744 82.468304 
L 295.467159 84.363406 
L 296.65102 85.61827 
L 297.252053 87.500568 
L 298.42978 90.010297 
L 299.021437 92.532831 
L 299.610424 91.265162 
L 300.206779 93.160264 
L 300.791962 91.892594 
L 301.390036 95.042561 
L 301.981342 93.787696 
L 302.572014 94.415129 
L 303.745684 91.892594 
L 304.922289 94.415129 
L 305.510121 91.892594 
L 306.09932 93.787696 
L 306.692219 94.415129 
L 307.277966 93.787696 
L 307.86596 94.415129 
L 308.459312 93.160264 
L 309.050306 92.532831 
L 309.651236 94.415129 
L 310.242808 93.787696 
L 310.829213 94.415129 
L 311.413923 90.63773 
L 312.008445 94.415129 
L 312.600404 90.63773 
L 313.183482 88.755432 
L 313.7668 84.363406 
L 314.354392 83.095736 
L 314.937872 79.958574 
L 315.520784 77.448845 
L 316.102687 78.70371 
L 316.689894 81.213439 
L 317.870916 84.990838 
L 318.463482 86.245703 
L 319.059688 84.990838 
L 319.647429 86.873135 
L 320.234769 89.382865 
L 320.826555 88.755432 
L 321.423662 90.010297 
L 322.011051 88.755432 
L 322.597626 90.63773 
L 323.187679 91.265162 
L 323.777894 88.755432 
L 324.362785 84.363406 
L 324.946727 81.213439 
L 326.692146 75.566548 
L 327.276907 78.076277 
L 327.864208 79.958574 
L 328.455315 82.468304 
L 329.044422 83.735973 
L 329.633592 84.363406 
L 330.228409 84.363406 
L 330.818588 86.245703 
L 331.417631 86.245703 
L 332.00646 88.128 
L 333.184255 85.61827 
L 333.772612 86.873135 
L 334.359657 84.990838 
L 336.111342 75.566548 
L 336.694666 74.92631 
L 337.277485 73.044013 
L 337.85949 75.566548 
L 338.45456 78.70371 
L 340.809572 83.735973 
L 341.404364 76.821412 
L 341.992618 79.958574 
L 342.580825 79.331142 
L 343.174485 79.958574 
L 343.763199 79.958574 
L 344.355239 77.448845 
L 344.943068 78.076277 
L 345.5313 79.331142 
L 346.121464 79.331142 
L 346.71207 79.958574 
L 347.308958 75.566548 
L 347.896469 77.448845 
L 348.487229 74.298878 
L 349.079119 76.19398 
L 349.666513 77.448845 
L 350.257056 77.448845 
L 350.842489 74.92631 
L 351.431938 73.671446 
L 352.606274 72.416581 
L 353.195332 74.92631 
L 353.779536 73.671446 
L 354.369525 76.19398 
L 354.962621 74.298878 
L 355.551396 76.821412 
L 356.139599 76.19398 
L 356.737512 73.671446 
L 357.342747 73.044013 
L 357.939017 74.298878 
L 358.530344 73.044013 
L 359.122551 75.566548 
L 359.713688 74.298878 
L 360.30846 74.92631 
L 360.911785 77.448845 
L 361.51185 75.566548 
L 362.099533 77.448845 
L 362.689998 76.821412 
L 363.285722 76.821412 
L 363.87533 74.92631 
L 364.464009 78.076277 
L 365.052357 76.19398 
L 365.639913 73.671446 
L 366.230125 75.566548 
L 366.82181 74.298878 
L 368.003329 64.874588 
L 368.592605 63.619723 
L 369.185249 66.129452 
L 369.777651 67.397122 
L 370.378394 68.024554 
L 370.973317 68.024554 
L 371.567213 70.534284 
L 372.15859 66.76969 
L 373.338065 69.279419 
L 373.924888 68.651987 
L 374.520217 67.397122 
L 375.113194 63.619723 
L 375.697655 62.99229 
L 376.288534 59.227696 
L 376.879849 56.705162 
L 377.466759 54.822865 
L 378.054477 53.568 
L 378.647496 57.332594 
L 379.237427 54.822865 
L 379.828241 61.109993 
L 380.44232 58.600264 
L 381.064459 59.855129 
L 381.654096 62.99229 
L 382.243758 61.109993 
L 382.835526 59.855129 
L 383.429687 57.332594 
L 384.019058 59.227696 
L 384.609286 62.364858 
L 385.197752 64.874588 
L 385.792279 65.50202 
L 386.383614 65.50202 
L 386.972378 66.129452 
L 387.558989 63.619723 
L 388.144309 67.397122 
L 388.735822 68.024554 
L 389.320362 68.024554 
L 389.91053 68.651987 
L 390.505796 68.651987 
L 391.101258 66.76969 
L 391.691372 69.279419 
L 393.447962 67.397122 
L 394.03561 66.129452 
L 394.62766 67.397122 
L 395.819112 66.129452 
L 396.422784 67.397122 
L 397.010497 68.024554 
L 397.600281 66.76969 
L 398.774112 65.50202 
L 399.360609 66.76969 
L 399.952475 68.651987 
L 400.545495 66.76969 
L 401.133221 68.651987 
L 402.313935 67.397122 
L 402.904072 66.129452 
L 403.492776 66.129452 
L 404.077478 64.874588 
L 404.666295 65.50202 
L 405.256697 65.50202 
L 405.846748 67.397122 
L 406.439799 64.874588 
L 407.037208 69.279419 
L 407.628843 69.279419 
L 408.221123 69.906851 
L 408.812966 69.279419 
L 409.398788 71.789149 
L 409.993146 71.161716 
L 410.583203 73.671446 
L 411.172517 72.416581 
L 411.765669 73.671446 
L 412.360923 72.416581 
L 412.95358 71.789149 
L 414.128067 71.789149 
L 414.72 83.735973 
L 414.72 83.735973 
" style="fill:none;stroke:#1f77b4;stroke-linecap:square;stroke-width:1.5;"/>
   </g>
   <g id="patch_3">
    <path d="M 57.6 307.584 
L 57.6 41.472 
" style="fill:none;stroke:#000000;stroke-linecap:square;stroke-linejoin:miter;stroke-width:0.8;"/>
   </g>
   <g id="patch_4">
    <path d="M 414.72 307.584 
L 414.72 41.472 
" style="fill:none;stroke:#000000;stroke-linecap:square;stroke-linejoin:miter;stroke-width:0.8;"/>
   </g>
   <g id="patch_5">
    <path d="M 57.6 307.584 
L 414.72 307.584 
" style="fill:none;stroke:#000000;stroke-linecap:square;stroke-linejoin:miter;stroke-width:0.8;"/>
   </g>
   <g id="patch_6">
    <path d="M 57.6 41.472 
L 414.72 41.472 
" style="fill:none;stroke:#000000;stroke-linecap:square;stroke-linejoin:miter;stroke-width:0.8;"/>
   </g>
   <g id="patch_7">
    <path d="M 378.289868 78.677879 
L 378.073236 55.569027 
" style="fill:none;stroke:#000000;stroke-linecap:round;"/>
    <path d="M 380.252284 74.659307 
L 378.289868 78.677879 
L 376.252459 74.696803 
" style="fill:none;stroke:#000000;stroke-linecap:round;"/>
   </g>
   <g id="text_17">
    <g id="patch_8">
     <path d="M 359.907572 109.172128 
L 396.991947 109.172128 
Q 399.991947 109.172128 399.991947 106.172128 
L 399.991947 85.296191 
Q 399.991947 82.296191 396.991947 82.296191 
L 359.907572 82.296191 
Q 356.907572 82.296191 356.907572 85.296191 
L 356.907572 106.172128 
Q 356.907572 109.172128 359.907572 109.172128 
z
" style="fill:#ffffff;stroke:#ff0000;stroke-linejoin:miter;"/>
    </g>
    <!-- highest -->
    <defs>
     <path d="M 54.890625 33.015625 
L 54.890625 0 
L 45.90625 0 
L 45.90625 32.71875 
Q 45.90625 40.484375 42.875 44.328125 
Q 39.84375 48.1875 33.796875 48.1875 
Q 26.515625 48.1875 22.3125 43.546875 
Q 18.109375 38.921875 18.109375 30.90625 
L 18.109375 0 
L 9.078125 0 
L 9.078125 75.984375 
L 18.109375 75.984375 
L 18.109375 46.1875 
Q 21.34375 51.125 25.703125 53.5625 
Q 30.078125 56 35.796875 56 
Q 45.21875 56 50.046875 50.171875 
Q 54.890625 44.34375 54.890625 33.015625 
z
" id="DejaVuSans-104"/>
     <path d="M 45.40625 27.984375 
Q 45.40625 37.75 41.375 43.109375 
Q 37.359375 48.484375 30.078125 48.484375 
Q 22.859375 48.484375 18.828125 43.109375 
Q 14.796875 37.75 14.796875 27.984375 
Q 14.796875 18.265625 18.828125 12.890625 
Q 22.859375 7.515625 30.078125 7.515625 
Q 37.359375 7.515625 41.375 12.890625 
Q 45.40625 18.265625 45.40625 27.984375 
z
M 54.390625 6.78125 
Q 54.390625 -7.171875 48.1875 -13.984375 
Q 42 -20.796875 29.203125 -20.796875 
Q 24.46875 -20.796875 20.265625 -20.09375 
Q 16.0625 -19.390625 12.109375 -17.921875 
L 12.109375 -9.1875 
Q 16.0625 -11.328125 19.921875 -12.34375 
Q 23.78125 -13.375 27.78125 -13.375 
Q 36.625 -13.375 41.015625 -8.765625 
Q 45.40625 -4.15625 45.40625 5.171875 
L 45.40625 9.625 
Q 42.625 4.78125 38.28125 2.390625 
Q 33.9375 0 27.875 0 
Q 17.828125 0 11.671875 7.65625 
Q 5.515625 15.328125 5.515625 27.984375 
Q 5.515625 40.671875 11.671875 48.328125 
Q 17.828125 56 27.875 56 
Q 33.9375 56 38.28125 53.609375 
Q 42.625 51.21875 45.40625 46.390625 
L 45.40625 54.6875 
L 54.390625 54.6875 
z
" id="DejaVuSans-103"/>
    </defs>
    <g transform="translate(359.907572 92.894628)scale(0.1 -0.1)">
     <use xlink:href="#DejaVuSans-104"/>
     <use x="63.378906" xlink:href="#DejaVuSans-105"/>
     <use x="91.162109" xlink:href="#DejaVuSans-103"/>
     <use x="154.638672" xlink:href="#DejaVuSans-104"/>
     <use x="218.017578" xlink:href="#DejaVuSans-101"/>
     <use x="279.541016" xlink:href="#DejaVuSans-115"/>
     <use x="331.640625" xlink:href="#DejaVuSans-116"/>
    </g>
    <!-- 56.4°C -->
    <g transform="translate(359.907572 104.092441)scale(0.1 -0.1)">
     <use xlink:href="#DejaVuSans-53"/>
     <use x="63.623047" xlink:href="#DejaVuSans-54"/>
     <use x="127.246094" xlink:href="#DejaVuSans-46"/>
     <use x="159.033203" xlink:href="#DejaVuSans-52"/>
     <use x="222.65625" xlink:href="#DejaVuSans-176"/>
     <use x="272.65625" xlink:href="#DejaVuSans-67"/>
    </g>
   </g>
   <g id="patch_9">
    <path d="M 106.837264 289.847456 
L 59.588231 295.260231 
" style="fill:none;stroke:#000000;stroke-linecap:round;"/>
    <path d="M 102.635628 288.315708 
L 106.837264 289.847456 
L 103.090884 292.289716 
" style="fill:none;stroke:#000000;stroke-linecap:round;"/>
   </g>
   <g id="text_18">
    <g id="patch_10">
     <path d="M 113.436631 300.567687 
L 147.685068 300.567687 
Q 150.685068 300.567687 150.685068 297.567687 
L 150.685068 276.69175 
Q 150.685068 273.69175 147.685068 273.69175 
L 113.436631 273.69175 
Q 110.436631 273.69175 110.436631 276.69175 
L 110.436631 297.567687 
Q 110.436631 300.567687 113.436631 300.567687 
z
" style="fill:#ffffff;stroke:#0000ff;stroke-linejoin:miter;"/>
    </g>
    <!-- start -->
    <g transform="translate(113.436631 284.290188)scale(0.1 -0.1)">
     <use xlink:href="#DejaVuSans-115"/>
     <use x="52.099609" xlink:href="#DejaVuSans-116"/>
     <use x="91.308594" xlink:href="#DejaVuSans-97"/>
     <use x="152.587891" xlink:href="#DejaVuSans-114"/>
     <use x="193.701172" xlink:href="#DejaVuSans-116"/>
    </g>
    <!-- 37.5°C -->
    <g transform="translate(113.436631 295.488)scale(0.1 -0.1)">
     <use xlink:href="#DejaVuSans-51"/>
     <use x="63.623047" xlink:href="#DejaVuSans-55"/>
     <use x="127.246094" xlink:href="#DejaVuSans-46"/>
     <use x="159.033203" xlink:href="#DejaVuSans-53"/>
     <use x="222.65625" xlink:href="#DejaVuSans-176"/>
     <use x="272.65625" xlink:href="#DejaVuSans-67"/>
    </g>
   </g>
   <g id="text_19">
    <!-- Temperature chart -->
    <defs>
     <path d="M 48.78125 52.59375 
L 48.78125 44.1875 
Q 44.96875 46.296875 41.140625 47.34375 
Q 37.3125 48.390625 33.40625 48.390625 
Q 24.65625 48.390625 19.8125 42.84375 
Q 14.984375 37.3125 14.984375 27.296875 
Q 14.984375 17.28125 19.8125 11.734375 
Q 24.65625 6.203125 33.40625 6.203125 
Q 37.3125 6.203125 41.140625 7.25 
Q 44.96875 8.296875 48.78125 10.40625 
L 48.78125 2.09375 
Q 45.015625 0.34375 40.984375 -0.53125 
Q 36.96875 -1.421875 32.421875 -1.421875 
Q 20.0625 -1.421875 12.78125 6.34375 
Q 5.515625 14.109375 5.515625 27.296875 
Q 5.515625 40.671875 12.859375 48.328125 
Q 20.21875 56 33.015625 56 
Q 37.15625 56 41.109375 55.140625 
Q 45.0625 54.296875 48.78125 52.59375 
z
" id="DejaVuSans-99"/>
    </defs>
    <g transform="translate(179.515312 35.472)scale(0.12 -0.12)">
     <use xlink:href="#DejaVuSans-84"/>
     <use x="60.818359" xlink:href="#DejaVuSans-101"/>
     <use x="122.341797" xlink:href="#DejaVuSans-109"/>
     <use x="219.753906" xlink:href="#DejaVuSans-112"/>
     <use x="283.230469" xlink:href="#DejaVuSans-101"/>
     <use x="344.753906" xlink:href="#DejaVuSans-114"/>
     <use x="385.867188" xlink:href="#DejaVuSans-97"/>
     <use x="447.146484" xlink:href="#DejaVuSans-116"/>
     <use x="486.355469" xlink:href="#DejaVuSans-117"/>
     <use x="549.734375" xlink:href="#DejaVuSans-114"/>
     <use x="590.816406" xlink:href="#DejaVuSans-101"/>
     <use x="652.339844" xlink:href="#DejaVuSans-32"/>
     <use x="684.126953" xlink:href="#DejaVuSans-99"/>
     <use x="739.107422" xlink:href="#DejaVuSans-104"/>
     <use x="802.486328" xlink:href="#DejaVuSans-97"/>
     <use x="863.765625" xlink:href="#DejaVuSans-114"/>
     <use x="904.878906" xlink:href="#DejaVuSans-116"/>
    </g>
   </g>
   <g id="legend_1">
    <g id="patch_11">
     <path d="M 64.6 64.150125 
L 135.767188 64.150125 
Q 137.767188 64.150125 137.767188 62.150125 
L 137.767188 48.472 
Q 137.767188 46.472 135.767188 46.472 
L 64.6 46.472 
Q 62.6 46.472 62.6 48.472 
L 62.6 62.150125 
Q 62.6 64.150125 64.6 64.150125 
z
" style="fill:#ffffff;opacity:0.8;stroke:#cccccc;stroke-linejoin:miter;"/>
    </g>
    <g id="line2d_30">
     <path d="M 66.6 54.570438 
L 86.6 54.570438 
" style="fill:none;stroke:#1f77b4;stroke-linecap:square;stroke-width:1.5;"/>
    </g>
    <g id="line2d_31"/>
    <g id="text_20">
     <!-- thermal -->
     <g transform="translate(94.6 58.070438)scale(0.1 -0.1)">
      <use xlink:href="#DejaVuSans-116"/>
      <use x="39.208984" xlink:href="#DejaVuSans-104"/>
      <use x="102.587891" xlink:href="#DejaVuSans-101"/>
      <use x="164.111328" xlink:href="#DejaVuSans-114"/>
      <use x="205.208984" xlink:href="#DejaVuSans-109"/>
      <use x="302.621094" xlink:href="#DejaVuSans-97"/>
      <use x="363.900391" xlink:href="#DejaVuSans-108"/>
     </g>
    </g>
   </g>
  </g>
 </g>
 <defs>
  <clipPath id="pcca5790fc9">
   <rect height="266.112" width="357.12" x="57.6" y="41.472"/>
  </clipPath>
 </defs>
</svg>
