<?xml version="1.0" encoding="utf-8" standalone="no"?>
<!DOCTYPE svg PUBLIC "-//W3C//DTD SVG 1.1//EN"
  "http://www.w3.org/Graphics/SVG/1.1/DTD/svg11.dtd">
<!-- Created with matplotlib (https://matplotlib.org/) -->
<svg height="345.6pt" version="1.1" viewBox="0 0 460.8 345.6" width="460.8pt" xmlns="http://www.w3.org/2000/svg" xmlns:xlink="http://www.w3.org/1999/xlink">
 <defs>
  <style type="text/css">
*{stroke-linecap:butt;stroke-linejoin:round;}
  </style>
 </defs>
 <g id="figure_1">
  <g id="patch_1">
   <path d="M 0 345.6 
L 460.8 345.6 
L 460.8 0 
L 0 0 
z
" style="fill:#ffffff;"/>
  </g>
  <g id="axes_1">
   <g id="patch_2">
    <path d="M 57.6 307.584 
L 414.72 307.584 
L 414.72 41.472 
L 57.6 41.472 
z
" style="fill:#ffffff;"/>
   </g>
   <g id="matplotlib.axis_1">
    <g id="xtick_1">
     <g id="line2d_1">
      <path clip-path="url(#p93d8a7dd53)" d="M 115.192421 307.584 
L 115.192421 41.472 
" style="fill:none;stroke:#b0b0b0;stroke-linecap:square;stroke-width:0.8;"/>
     </g>
     <g id="line2d_2">
      <defs>
       <path d="M 0 0 
L 0 3.5 
" id="md2d8d349cc" style="stroke:#000000;stroke-width:0.8;"/>
      </defs>
      <g>
       <use style="stroke:#000000;stroke-width:0.8;" x="115.192421" xlink:href="#md2d8d349cc" y="307.584"/>
      </g>
     </g>
     <g id="text_1">
      <!-- 200 -->
      <defs>
       <path d="M 19.1875 8.296875 
L 53.609375 8.296875 
L 53.609375 0 
L 7.328125 0 
L 7.328125 8.296875 
Q 12.9375 14.109375 22.625 23.890625 
Q 32.328125 33.6875 34.8125 36.53125 
Q 39.546875 41.84375 41.421875 45.53125 
Q 43.3125 49.21875 43.3125 52.78125 
Q 43.3125 58.59375 39.234375 62.25 
Q 35.15625 65.921875 28.609375 65.921875 
Q 23.96875 65.921875 18.8125 64.3125 
Q 13.671875 62.703125 7.8125 59.421875 
L 7.8125 69.390625 
Q 13.765625 71.78125 18.9375 73 
Q 24.125 74.21875 28.421875 74.21875 
Q 39.75 74.21875 46.484375 68.546875 
Q 53.21875 62.890625 53.21875 53.421875 
Q 53.21875 48.921875 51.53125 44.890625 
Q 49.859375 40.875 45.40625 35.40625 
Q 44.1875 33.984375 37.640625 27.21875 
Q 31.109375 20.453125 19.1875 8.296875 
z
" id="DejaVuSans-50"/>
       <path d="M 31.78125 66.40625 
Q 24.171875 66.40625 20.328125 58.90625 
Q 16.5 51.421875 16.5 36.375 
Q 16.5 21.390625 20.328125 13.890625 
Q 24.171875 6.390625 31.78125 6.390625 
Q 39.453125 6.390625 43.28125 13.890625 
Q 47.125 21.390625 47.125 36.375 
Q 47.125 51.421875 43.28125 58.90625 
Q 39.453125 66.40625 31.78125 66.40625 
z
M 31.78125 74.21875 
Q 44.046875 74.21875 50.515625 64.515625 
Q 56.984375 54.828125 56.984375 36.375 
Q 56.984375 17.96875 50.515625 8.265625 
Q 44.046875 -1.421875 31.78125 -1.421875 
Q 19.53125 -1.421875 13.0625 8.265625 
Q 6.59375 17.96875 6.59375 36.375 
Q 6.59375 54.828125 13.0625 64.515625 
Q 19.53125 74.21875 31.78125 74.21875 
z
" id="DejaVuSans-48"/>
      </defs>
      <g transform="translate(105.648671 322.182437)scale(0.1 -0.1)">
       <use xlink:href="#DejaVuSans-50"/>
       <use x="63.623047" xlink:href="#DejaVuSans-48"/>
       <use x="127.246094" xlink:href="#DejaVuSans-48"/>
      </g>
     </g>
    </g>
    <g id="xtick_2">
     <g id="line2d_3">
      <path clip-path="url(#p93d8a7dd53)" d="M 172.791703 307.584 
L 172.791703 41.472 
" style="fill:none;stroke:#b0b0b0;stroke-linecap:square;stroke-width:0.8;"/>
     </g>
     <g id="line2d_4">
      <g>
       <use style="stroke:#000000;stroke-width:0.8;" x="172.791703" xlink:href="#md2d8d349cc" y="307.584"/>
      </g>
     </g>
     <g id="text_2">
      <!-- 400 -->
      <defs>
       <path d="M 37.796875 64.3125 
L 12.890625 25.390625 
L 37.796875 25.390625 
z
M 35.203125 72.90625 
L 47.609375 72.90625 
L 47.609375 25.390625 
L 58.015625 25.390625 
L 58.015625 17.1875 
L 47.609375 17.1875 
L 47.609375 0 
L 37.796875 0 
L 37.796875 17.1875 
L 4.890625 17.1875 
L 4.890625 26.703125 
z
" id="DejaVuSans-52"/>
      </defs>
      <g transform="translate(163.247953 322.182437)scale(0.1 -0.1)">
       <use xlink:href="#DejaVuSans-52"/>
       <use x="63.623047" xlink:href="#DejaVuSans-48"/>
       <use x="127.246094" xlink:href="#DejaVuSans-48"/>
      </g>
     </g>
    </g>
    <g id="xtick_3">
     <g id="line2d_5">
      <path clip-path="url(#p93d8a7dd53)" d="M 230.390985 307.584 
L 230.390985 41.472 
" style="fill:none;stroke:#b0b0b0;stroke-linecap:square;stroke-width:0.8;"/>
     </g>
     <g id="line2d_6">
      <g>
       <use style="stroke:#000000;stroke-width:0.8;" x="230.390985" xlink:href="#md2d8d349cc" y="307.584"/>
      </g>
     </g>
     <g id="text_3">
      <!-- 600 -->
      <defs>
       <path d="M 33.015625 40.375 
Q 26.375 40.375 22.484375 35.828125 
Q 18.609375 31.296875 18.609375 23.390625 
Q 18.609375 15.53125 22.484375 10.953125 
Q 26.375 6.390625 33.015625 6.390625 
Q 39.65625 6.390625 43.53125 10.953125 
Q 47.40625 15.53125 47.40625 23.390625 
Q 47.40625 31.296875 43.53125 35.828125 
Q 39.65625 40.375 33.015625 40.375 
z
M 52.59375 71.296875 
L 52.59375 62.3125 
Q 48.875 64.0625 45.09375 64.984375 
Q 41.3125 65.921875 37.59375 65.921875 
Q 27.828125 65.921875 22.671875 59.328125 
Q 17.53125 52.734375 16.796875 39.40625 
Q 19.671875 43.65625 24.015625 45.921875 
Q 28.375 48.1875 33.59375 48.1875 
Q 44.578125 48.1875 50.953125 41.515625 
Q 57.328125 34.859375 57.328125 23.390625 
Q 57.328125 12.15625 50.6875 5.359375 
Q 44.046875 -1.421875 33.015625 -1.421875 
Q 20.359375 -1.421875 13.671875 8.265625 
Q 6.984375 17.96875 6.984375 36.375 
Q 6.984375 53.65625 15.1875 63.9375 
Q 23.390625 74.21875 37.203125 74.21875 
Q 40.921875 74.21875 44.703125 73.484375 
Q 48.484375 72.75 52.59375 71.296875 
z
" id="DejaVuSans-54"/>
      </defs>
      <g transform="translate(220.847235 322.182437)scale(0.1 -0.1)">
       <use xlink:href="#DejaVuSans-54"/>
       <use x="63.623047" xlink:href="#DejaVuSans-48"/>
       <use x="127.246094" xlink:href="#DejaVuSans-48"/>
      </g>
     </g>
    </g>
    <g id="xtick_4">
     <g id="line2d_7">
      <path clip-path="url(#p93d8a7dd53)" d="M 287.990267 307.584 
L 287.990267 41.472 
" style="fill:none;stroke:#b0b0b0;stroke-linecap:square;stroke-width:0.8;"/>
     </g>
     <g id="line2d_8">
      <g>
       <use style="stroke:#000000;stroke-width:0.8;" x="287.990267" xlink:href="#md2d8d349cc" y="307.584"/>
      </g>
     </g>
     <g id="text_4">
      <!-- 800 -->
      <defs>
       <path d="M 31.78125 34.625 
Q 24.75 34.625 20.71875 30.859375 
Q 16.703125 27.09375 16.703125 20.515625 
Q 16.703125 13.921875 20.71875 10.15625 
Q 24.75 6.390625 31.78125 6.390625 
Q 38.8125 6.390625 42.859375 10.171875 
Q 46.921875 13.96875 46.921875 20.515625 
Q 46.921875 27.09375 42.890625 30.859375 
Q 38.875 34.625 31.78125 34.625 
z
M 21.921875 38.8125 
Q 15.578125 40.375 12.03125 44.71875 
Q 8.5 49.078125 8.5 55.328125 
Q 8.5 64.0625 14.71875 69.140625 
Q 20.953125 74.21875 31.78125 74.21875 
Q 42.671875 74.21875 48.875 69.140625 
Q 55.078125 64.0625 55.078125 55.328125 
Q 55.078125 49.078125 51.53125 44.71875 
Q 48 40.375 41.703125 38.8125 
Q 48.828125 37.15625 52.796875 32.3125 
Q 56.78125 27.484375 56.78125 20.515625 
Q 56.78125 9.90625 50.3125 4.234375 
Q 43.84375 -1.421875 31.78125 -1.421875 
Q 19.734375 -1.421875 13.25 4.234375 
Q 6.78125 9.90625 6.78125 20.515625 
Q 6.78125 27.484375 10.78125 32.3125 
Q 14.796875 37.15625 21.921875 38.8125 
z
M 18.3125 54.390625 
Q 18.3125 48.734375 21.84375 45.5625 
Q 25.390625 42.390625 31.78125 42.390625 
Q 38.140625 42.390625 41.71875 45.5625 
Q 45.3125 48.734375 45.3125 54.390625 
Q 45.3125 60.0625 41.71875 63.234375 
Q 38.140625 66.40625 31.78125 66.40625 
Q 25.390625 66.40625 21.84375 63.234375 
Q 18.3125 60.0625 18.3125 54.390625 
z
" id="DejaVuSans-56"/>
      </defs>
      <g transform="translate(278.446517 322.182437)scale(0.1 -0.1)">
       <use xlink:href="#DejaVuSans-56"/>
       <use x="63.623047" xlink:href="#DejaVuSans-48"/>
       <use x="127.246094" xlink:href="#DejaVuSans-48"/>
      </g>
     </g>
    </g>
    <g id="xtick_5">
     <g id="line2d_9">
      <path clip-path="url(#p93d8a7dd53)" d="M 345.589549 307.584 
L 345.589549 41.472 
" style="fill:none;stroke:#b0b0b0;stroke-linecap:square;stroke-width:0.8;"/>
     </g>
     <g id="line2d_10">
      <g>
       <use style="stroke:#000000;stroke-width:0.8;" x="345.589549" xlink:href="#md2d8d349cc" y="307.584"/>
      </g>
     </g>
     <g id="text_5">
      <!-- 1000 -->
      <defs>
       <path d="M 12.40625 8.296875 
L 28.515625 8.296875 
L 28.515625 63.921875 
L 10.984375 60.40625 
L 10.984375 69.390625 
L 28.421875 72.90625 
L 38.28125 72.90625 
L 38.28125 8.296875 
L 54.390625 8.296875 
L 54.390625 0 
L 12.40625 0 
z
" id="DejaVuSans-49"/>
      </defs>
      <g transform="translate(332.864549 322.182437)scale(0.1 -0.1)">
       <use xlink:href="#DejaVuSans-49"/>
       <use x="63.623047" xlink:href="#DejaVuSans-48"/>
       <use x="127.246094" xlink:href="#DejaVuSans-48"/>
       <use x="190.869141" xlink:href="#DejaVuSans-48"/>
      </g>
     </g>
    </g>
    <g id="xtick_6">
     <g id="line2d_11">
      <path clip-path="url(#p93d8a7dd53)" d="M 403.188831 307.584 
L 403.188831 41.472 
" style="fill:none;stroke:#b0b0b0;stroke-linecap:square;stroke-width:0.8;"/>
     </g>
     <g id="line2d_12">
      <g>
       <use style="stroke:#000000;stroke-width:0.8;" x="403.188831" xlink:href="#md2d8d349cc" y="307.584"/>
      </g>
     </g>
     <g id="text_6">
      <!-- 1200 -->
      <g transform="translate(390.463831 322.182437)scale(0.1 -0.1)">
       <use xlink:href="#DejaVuSans-49"/>
       <use x="63.623047" xlink:href="#DejaVuSans-50"/>
       <use x="127.246094" xlink:href="#DejaVuSans-48"/>
       <use x="190.869141" xlink:href="#DejaVuSans-48"/>
      </g>
     </g>
    </g>
    <g id="text_7">
     <!--                                         time/s                          Totally:1240.0 s -->
     <defs>
      <path id="DejaVuSans-32"/>
      <path d="M 18.3125 70.21875 
L 18.3125 54.6875 
L 36.8125 54.6875 
L 36.8125 47.703125 
L 18.3125 47.703125 
L 18.3125 18.015625 
Q 18.3125 11.328125 20.140625 9.421875 
Q 21.96875 7.515625 27.59375 7.515625 
L 36.8125 7.515625 
L 36.8125 0 
L 27.59375 0 
Q 17.1875 0 13.234375 3.875 
Q 9.28125 7.765625 9.28125 18.015625 
L 9.28125 47.703125 
L 2.6875 47.703125 
L 2.6875 54.6875 
L 9.28125 54.6875 
L 9.28125 70.21875 
z
" id="DejaVuSans-116"/>
      <path d="M 9.421875 54.6875 
L 18.40625 54.6875 
L 18.40625 0 
L 9.421875 0 
z
M 9.421875 75.984375 
L 18.40625 75.984375 
L 18.40625 64.59375 
L 9.421875 64.59375 
z
" id="DejaVuSans-105"/>
      <path d="M 52 44.1875 
Q 55.375 50.25 60.0625 53.125 
Q 64.75 56 71.09375 56 
Q 79.640625 56 84.28125 50.015625 
Q 88.921875 44.046875 88.921875 33.015625 
L 88.921875 0 
L 79.890625 0 
L 79.890625 32.71875 
Q 79.890625 40.578125 77.09375 44.375 
Q 74.3125 48.1875 68.609375 48.1875 
Q 61.625 48.1875 57.5625 43.546875 
Q 53.515625 38.921875 53.515625 30.90625 
L 53.515625 0 
L 44.484375 0 
L 44.484375 32.71875 
Q 44.484375 40.625 41.703125 44.40625 
Q 38.921875 48.1875 33.109375 48.1875 
Q 26.21875 48.1875 22.15625 43.53125 
Q 18.109375 38.875 18.109375 30.90625 
L 18.109375 0 
L 9.078125 0 
L 9.078125 54.6875 
L 18.109375 54.6875 
L 18.109375 46.1875 
Q 21.1875 51.21875 25.484375 53.609375 
Q 29.78125 56 35.6875 56 
Q 41.65625 56 45.828125 52.96875 
Q 50 49.953125 52 44.1875 
z
" id="DejaVuSans-109"/>
      <path d="M 56.203125 29.59375 
L 56.203125 25.203125 
L 14.890625 25.203125 
Q 15.484375 15.921875 20.484375 11.0625 
Q 25.484375 6.203125 34.421875 6.203125 
Q 39.59375 6.203125 44.453125 7.46875 
Q 49.3125 8.734375 54.109375 11.28125 
L 54.109375 2.78125 
Q 49.265625 0.734375 44.1875 -0.34375 
Q 39.109375 -1.421875 33.890625 -1.421875 
Q 20.796875 -1.421875 13.15625 6.1875 
Q 5.515625 13.8125 5.515625 26.8125 
Q 5.515625 40.234375 12.765625 48.109375 
Q 20.015625 56 32.328125 56 
Q 43.359375 56 49.78125 48.890625 
Q 56.203125 41.796875 56.203125 29.59375 
z
M 47.21875 32.234375 
Q 47.125 39.59375 43.09375 43.984375 
Q 39.0625 48.390625 32.421875 48.390625 
Q 24.90625 48.390625 20.390625 44.140625 
Q 15.875 39.890625 15.1875 32.171875 
z
" id="DejaVuSans-101"/>
      <path d="M 25.390625 72.90625 
L 33.6875 72.90625 
L 8.296875 -9.28125 
L 0 -9.28125 
z
" id="DejaVuSans-47"/>
      <path d="M 44.28125 53.078125 
L 44.28125 44.578125 
Q 40.484375 46.53125 36.375 47.5 
Q 32.28125 48.484375 27.875 48.484375 
Q 21.1875 48.484375 17.84375 46.4375 
Q 14.5 44.390625 14.5 40.28125 
Q 14.5 37.15625 16.890625 35.375 
Q 19.28125 33.59375 26.515625 31.984375 
L 29.59375 31.296875 
Q 39.15625 29.25 43.1875 25.515625 
Q 47.21875 21.78125 47.21875 15.09375 
Q 47.21875 7.46875 41.1875 3.015625 
Q 35.15625 -1.421875 24.609375 -1.421875 
Q 20.21875 -1.421875 15.453125 -0.5625 
Q 10.6875 0.296875 5.421875 2 
L 5.421875 11.28125 
Q 10.40625 8.6875 15.234375 7.390625 
Q 20.0625 6.109375 24.8125 6.109375 
Q 31.15625 6.109375 34.5625 8.28125 
Q 37.984375 10.453125 37.984375 14.40625 
Q 37.984375 18.0625 35.515625 20.015625 
Q 33.0625 21.96875 24.703125 23.78125 
L 21.578125 24.515625 
Q 13.234375 26.265625 9.515625 29.90625 
Q 5.8125 33.546875 5.8125 39.890625 
Q 5.8125 47.609375 11.28125 51.796875 
Q 16.75 56 26.8125 56 
Q 31.78125 56 36.171875 55.265625 
Q 40.578125 54.546875 44.28125 53.078125 
z
" id="DejaVuSans-115"/>
      <path d="M -0.296875 72.90625 
L 61.375 72.90625 
L 61.375 64.59375 
L 35.5 64.59375 
L 35.5 0 
L 25.59375 0 
L 25.59375 64.59375 
L -0.296875 64.59375 
z
" id="DejaVuSans-84"/>
      <path d="M 30.609375 48.390625 
Q 23.390625 48.390625 19.1875 42.75 
Q 14.984375 37.109375 14.984375 27.296875 
Q 14.984375 17.484375 19.15625 11.84375 
Q 23.34375 6.203125 30.609375 6.203125 
Q 37.796875 6.203125 41.984375 11.859375 
Q 46.1875 17.53125 46.1875 27.296875 
Q 46.1875 37.015625 41.984375 42.703125 
Q 37.796875 48.390625 30.609375 48.390625 
z
M 30.609375 56 
Q 42.328125 56 49.015625 48.375 
Q 55.71875 40.765625 55.71875 27.296875 
Q 55.71875 13.875 49.015625 6.21875 
Q 42.328125 -1.421875 30.609375 -1.421875 
Q 18.84375 -1.421875 12.171875 6.21875 
Q 5.515625 13.875 5.515625 27.296875 
Q 5.515625 40.765625 12.171875 48.375 
Q 18.84375 56 30.609375 56 
z
" id="DejaVuSans-111"/>
      <path d="M 34.28125 27.484375 
Q 23.390625 27.484375 19.1875 25 
Q 14.984375 22.515625 14.984375 16.5 
Q 14.984375 11.71875 18.140625 8.90625 
Q 21.296875 6.109375 26.703125 6.109375 
Q 34.1875 6.109375 38.703125 11.40625 
Q 43.21875 16.703125 43.21875 25.484375 
L 43.21875 27.484375 
z
M 52.203125 31.203125 
L 52.203125 0 
L 43.21875 0 
L 43.21875 8.296875 
Q 40.140625 3.328125 35.546875 0.953125 
Q 30.953125 -1.421875 24.3125 -1.421875 
Q 15.921875 -1.421875 10.953125 3.296875 
Q 6 8.015625 6 15.921875 
Q 6 25.140625 12.171875 29.828125 
Q 18.359375 34.515625 30.609375 34.515625 
L 43.21875 34.515625 
L 43.21875 35.40625 
Q 43.21875 41.609375 39.140625 45 
Q 35.0625 48.390625 27.6875 48.390625 
Q 23 48.390625 18.546875 47.265625 
Q 14.109375 46.140625 10.015625 43.890625 
L 10.015625 52.203125 
Q 14.9375 54.109375 19.578125 55.046875 
Q 24.21875 56 28.609375 56 
Q 40.484375 56 46.34375 49.84375 
Q 52.203125 43.703125 52.203125 31.203125 
z
" id="DejaVuSans-97"/>
      <path d="M 9.421875 75.984375 
L 18.40625 75.984375 
L 18.40625 0 
L 9.421875 0 
z
" id="DejaVuSans-108"/>
      <path d="M 32.171875 -5.078125 
Q 28.375 -14.84375 24.75 -17.8125 
Q 21.140625 -20.796875 15.09375 -20.796875 
L 7.90625 -20.796875 
L 7.90625 -13.28125 
L 13.1875 -13.28125 
Q 16.890625 -13.28125 18.9375 -11.515625 
Q 21 -9.765625 23.484375 -3.21875 
L 25.09375 0.875 
L 2.984375 54.6875 
L 12.5 54.6875 
L 29.59375 11.921875 
L 46.6875 54.6875 
L 56.203125 54.6875 
z
" id="DejaVuSans-121"/>
      <path d="M 11.71875 12.40625 
L 22.015625 12.40625 
L 22.015625 0 
L 11.71875 0 
z
M 11.71875 51.703125 
L 22.015625 51.703125 
L 22.015625 39.3125 
L 11.71875 39.3125 
z
" id="DejaVuSans-58"/>
      <path d="M 10.6875 12.40625 
L 21 12.40625 
L 21 0 
L 10.6875 0 
z
" id="DejaVuSans-46"/>
     </defs>
     <g transform="translate(75.467031 335.860562)scale(0.1 -0.1)">
      <use xlink:href="#DejaVuSans-32"/>
      <use x="31.787109" xlink:href="#DejaVuSans-32"/>
      <use x="63.574219" xlink:href="#DejaVuSans-32"/>
      <use x="95.361328" xlink:href="#DejaVuSans-32"/>
      <use x="127.148438" xlink:href="#DejaVuSans-32"/>
      <use x="158.935547" xlink:href="#DejaVuSans-32"/>
      <use x="190.722656" xlink:href="#DejaVuSans-32"/>
      <use x="222.509766" xlink:href="#DejaVuSans-32"/>
      <use x="254.296875" xlink:href="#DejaVuSans-32"/>
      <use x="286.083984" xlink:href="#DejaVuSans-32"/>
      <use x="317.871094" xlink:href="#DejaVuSans-32"/>
      <use x="349.658203" xlink:href="#DejaVuSans-32"/>
      <use x="381.445312" xlink:href="#DejaVuSans-32"/>
      <use x="413.232422" xlink:href="#DejaVuSans-32"/>
      <use x="445.019531" xlink:href="#DejaVuSans-32"/>
      <use x="476.806641" xlink:href="#DejaVuSans-32"/>
      <use x="508.59375" xlink:href="#DejaVuSans-32"/>
      <use x="540.380859" xlink:href="#DejaVuSans-32"/>
      <use x="572.167969" xlink:href="#DejaVuSans-32"/>
      <use x="603.955078" xlink:href="#DejaVuSans-32"/>
      <use x="635.742188" xlink:href="#DejaVuSans-32"/>
      <use x="667.529297" xlink:href="#DejaVuSans-32"/>
      <use x="699.316406" xlink:href="#DejaVuSans-32"/>
      <use x="731.103516" xlink:href="#DejaVuSans-32"/>
      <use x="762.890625" xlink:href="#DejaVuSans-32"/>
      <use x="794.677734" xlink:href="#DejaVuSans-32"/>
      <use x="826.464844" xlink:href="#DejaVuSans-32"/>
      <use x="858.251953" xlink:href="#DejaVuSans-32"/>
      <use x="890.039062" xlink:href="#DejaVuSans-32"/>
      <use x="921.826172" xlink:href="#DejaVuSans-32"/>
      <use x="953.613281" xlink:href="#DejaVuSans-32"/>
      <use x="985.400391" xlink:href="#DejaVuSans-32"/>
      <use x="1017.1875" xlink:href="#DejaVuSans-32"/>
      <use x="1048.974609" xlink:href="#DejaVuSans-32"/>
      <use x="1080.761719" xlink:href="#DejaVuSans-32"/>
      <use x="1112.548828" xlink:href="#DejaVuSans-32"/>
      <use x="1144.335938" xlink:href="#DejaVuSans-32"/>
      <use x="1176.123047" xlink:href="#DejaVuSans-32"/>
      <use x="1207.910156" xlink:href="#DejaVuSans-32"/>
      <use x="1239.697266" xlink:href="#DejaVuSans-32"/>
      <use x="1271.484375" xlink:href="#DejaVuSans-116"/>
      <use x="1310.693359" xlink:href="#DejaVuSans-105"/>
      <use x="1338.476562" xlink:href="#DejaVuSans-109"/>
      <use x="1435.888672" xlink:href="#DejaVuSans-101"/>
      <use x="1497.412109" xlink:href="#DejaVuSans-47"/>
      <use x="1531.103516" xlink:href="#DejaVuSans-115"/>
      <use x="1583.203125" xlink:href="#DejaVuSans-32"/>
      <use x="1614.990234" xlink:href="#DejaVuSans-32"/>
      <use x="1646.777344" xlink:href="#DejaVuSans-32"/>
      <use x="1678.564453" xlink:href="#DejaVuSans-32"/>
      <use x="1710.351562" xlink:href="#DejaVuSans-32"/>
      <use x="1742.138672" xlink:href="#DejaVuSans-32"/>
      <use x="1773.925781" xlink:href="#DejaVuSans-32"/>
      <use x="1805.712891" xlink:href="#DejaVuSans-32"/>
      <use x="1837.5" xlink:href="#DejaVuSans-32"/>
      <use x="1869.287109" xlink:href="#DejaVuSans-32"/>
      <use x="1901.074219" xlink:href="#DejaVuSans-32"/>
      <use x="1932.861328" xlink:href="#DejaVuSans-32"/>
      <use x="1964.648438" xlink:href="#DejaVuSans-32"/>
      <use x="1996.435547" xlink:href="#DejaVuSans-32"/>
      <use x="2028.222656" xlink:href="#DejaVuSans-32"/>
      <use x="2060.009766" xlink:href="#DejaVuSans-32"/>
      <use x="2091.796875" xlink:href="#DejaVuSans-32"/>
      <use x="2123.583984" xlink:href="#DejaVuSans-32"/>
      <use x="2155.371094" xlink:href="#DejaVuSans-32"/>
      <use x="2187.158203" xlink:href="#DejaVuSans-32"/>
      <use x="2218.945312" xlink:href="#DejaVuSans-32"/>
      <use x="2250.732422" xlink:href="#DejaVuSans-32"/>
      <use x="2282.519531" xlink:href="#DejaVuSans-32"/>
      <use x="2314.306641" xlink:href="#DejaVuSans-32"/>
      <use x="2346.09375" xlink:href="#DejaVuSans-32"/>
      <use x="2377.880859" xlink:href="#DejaVuSans-32"/>
      <use x="2409.667969" xlink:href="#DejaVuSans-84"/>
      <use x="2470.486328" xlink:href="#DejaVuSans-111"/>
      <use x="2531.667969" xlink:href="#DejaVuSans-116"/>
      <use x="2570.876953" xlink:href="#DejaVuSans-97"/>
      <use x="2632.15625" xlink:href="#DejaVuSans-108"/>
      <use x="2659.939453" xlink:href="#DejaVuSans-108"/>
      <use x="2687.722656" xlink:href="#DejaVuSans-121"/>
      <use x="2746.792969" xlink:href="#DejaVuSans-58"/>
      <use x="2780.484375" xlink:href="#DejaVuSans-49"/>
      <use x="2844.107422" xlink:href="#DejaVuSans-50"/>
      <use x="2907.730469" xlink:href="#DejaVuSans-52"/>
      <use x="2971.353516" xlink:href="#DejaVuSans-48"/>
      <use x="3034.976562" xlink:href="#DejaVuSans-46"/>
      <use x="3066.763672" xlink:href="#DejaVuSans-48"/>
      <use x="3130.386719" xlink:href="#DejaVuSans-32"/>
      <use x="3162.173828" xlink:href="#DejaVuSans-115"/>
     </g>
    </g>
   </g>
   <g id="matplotlib.axis_2">
    <g id="ytick_1">
     <g id="line2d_13">
      <path clip-path="url(#p93d8a7dd53)" d="M 57.6 284.281016 
L 414.72 284.281016 
" style="fill:none;stroke:#b0b0b0;stroke-linecap:square;stroke-width:0.8;"/>
     </g>
     <g id="line2d_14">
      <defs>
       <path d="M 0 0 
L -3.5 0 
" id="m72d5d57db8" style="stroke:#000000;stroke-width:0.8;"/>
      </defs>
      <g>
       <use style="stroke:#000000;stroke-width:0.8;" x="57.6" xlink:href="#m72d5d57db8" y="284.281016"/>
      </g>
     </g>
     <g id="text_8">
      <!-- 48 -->
      <g transform="translate(37.875 288.080234)scale(0.1 -0.1)">
       <use xlink:href="#DejaVuSans-52"/>
       <use x="63.623047" xlink:href="#DejaVuSans-56"/>
      </g>
     </g>
    </g>
    <g id="ytick_2">
     <g id="line2d_15">
      <path clip-path="url(#p93d8a7dd53)" d="M 57.6 230.401283 
L 414.72 230.401283 
" style="fill:none;stroke:#b0b0b0;stroke-linecap:square;stroke-width:0.8;"/>
     </g>
     <g id="line2d_16">
      <g>
       <use style="stroke:#000000;stroke-width:0.8;" x="57.6" xlink:href="#m72d5d57db8" y="230.401283"/>
      </g>
     </g>
     <g id="text_9">
      <!-- 50 -->
      <defs>
       <path d="M 10.796875 72.90625 
L 49.515625 72.90625 
L 49.515625 64.59375 
L 19.828125 64.59375 
L 19.828125 46.734375 
Q 21.96875 47.46875 24.109375 47.828125 
Q 26.265625 48.1875 28.421875 48.1875 
Q 40.625 48.1875 47.75 41.5 
Q 54.890625 34.8125 54.890625 23.390625 
Q 54.890625 11.625 47.5625 5.09375 
Q 40.234375 -1.421875 26.90625 -1.421875 
Q 22.3125 -1.421875 17.546875 -0.640625 
Q 12.796875 0.140625 7.71875 1.703125 
L 7.71875 11.625 
Q 12.109375 9.234375 16.796875 8.0625 
Q 21.484375 6.890625 26.703125 6.890625 
Q 35.15625 6.890625 40.078125 11.328125 
Q 45.015625 15.765625 45.015625 23.390625 
Q 45.015625 31 40.078125 35.4375 
Q 35.15625 39.890625 26.703125 39.890625 
Q 22.75 39.890625 18.8125 39.015625 
Q 14.890625 38.140625 10.796875 36.28125 
z
" id="DejaVuSans-53"/>
      </defs>
      <g transform="translate(37.875 234.200502)scale(0.1 -0.1)">
       <use xlink:href="#DejaVuSans-53"/>
       <use x="63.623047" xlink:href="#DejaVuSans-48"/>
      </g>
     </g>
    </g>
    <g id="ytick_3">
     <g id="line2d_17">
      <path clip-path="url(#p93d8a7dd53)" d="M 57.6 176.52155 
L 414.72 176.52155 
" style="fill:none;stroke:#b0b0b0;stroke-linecap:square;stroke-width:0.8;"/>
     </g>
     <g id="line2d_18">
      <g>
       <use style="stroke:#000000;stroke-width:0.8;" x="57.6" xlink:href="#m72d5d57db8" y="176.52155"/>
      </g>
     </g>
     <g id="text_10">
      <!-- 52 -->
      <g transform="translate(37.875 180.320769)scale(0.1 -0.1)">
       <use xlink:href="#DejaVuSans-53"/>
       <use x="63.623047" xlink:href="#DejaVuSans-50"/>
      </g>
     </g>
    </g>
    <g id="ytick_4">
     <g id="line2d_19">
      <path clip-path="url(#p93d8a7dd53)" d="M 57.6 122.641817 
L 414.72 122.641817 
" style="fill:none;stroke:#b0b0b0;stroke-linecap:square;stroke-width:0.8;"/>
     </g>
     <g id="line2d_20">
      <g>
       <use style="stroke:#000000;stroke-width:0.8;" x="57.6" xlink:href="#m72d5d57db8" y="122.641817"/>
      </g>
     </g>
     <g id="text_11">
      <!-- 54 -->
      <g transform="translate(37.875 126.441036)scale(0.1 -0.1)">
       <use xlink:href="#DejaVuSans-53"/>
       <use x="63.623047" xlink:href="#DejaVuSans-52"/>
      </g>
     </g>
    </g>
    <g id="ytick_5">
     <g id="line2d_21">
      <path clip-path="url(#p93d8a7dd53)" d="M 57.6 68.762085 
L 414.72 68.762085 
" style="fill:none;stroke:#b0b0b0;stroke-linecap:square;stroke-width:0.8;"/>
     </g>
     <g id="line2d_22">
      <g>
       <use style="stroke:#000000;stroke-width:0.8;" x="57.6" xlink:href="#m72d5d57db8" y="68.762085"/>
      </g>
     </g>
     <g id="text_12">
      <!-- 56 -->
      <g transform="translate(37.875 72.561303)scale(0.1 -0.1)">
       <use xlink:href="#DejaVuSans-53"/>
       <use x="63.623047" xlink:href="#DejaVuSans-54"/>
      </g>
     </g>
    </g>
    <g id="text_13">
     <!-- temperature/°C -->
     <defs>
      <path d="M 18.109375 8.203125 
L 18.109375 -20.796875 
L 9.078125 -20.796875 
L 9.078125 54.6875 
L 18.109375 54.6875 
L 18.109375 46.390625 
Q 20.953125 51.265625 25.265625 53.625 
Q 29.59375 56 35.59375 56 
Q 45.5625 56 51.78125 48.09375 
Q 58.015625 40.1875 58.015625 27.296875 
Q 58.015625 14.40625 51.78125 6.484375 
Q 45.5625 -1.421875 35.59375 -1.421875 
Q 29.59375 -1.421875 25.265625 0.953125 
Q 20.953125 3.328125 18.109375 8.203125 
z
M 48.6875 27.296875 
Q 48.6875 37.203125 44.609375 42.84375 
Q 40.53125 48.484375 33.40625 48.484375 
Q 26.265625 48.484375 22.1875 42.84375 
Q 18.109375 37.203125 18.109375 27.296875 
Q 18.109375 17.390625 22.1875 11.75 
Q 26.265625 6.109375 33.40625 6.109375 
Q 40.53125 6.109375 44.609375 11.75 
Q 48.6875 17.390625 48.6875 27.296875 
z
" id="DejaVuSans-112"/>
      <path d="M 41.109375 46.296875 
Q 39.59375 47.171875 37.8125 47.578125 
Q 36.03125 48 33.890625 48 
Q 26.265625 48 22.1875 43.046875 
Q 18.109375 38.09375 18.109375 28.8125 
L 18.109375 0 
L 9.078125 0 
L 9.078125 54.6875 
L 18.109375 54.6875 
L 18.109375 46.1875 
Q 20.953125 51.171875 25.484375 53.578125 
Q 30.03125 56 36.53125 56 
Q 37.453125 56 38.578125 55.875 
Q 39.703125 55.765625 41.0625 55.515625 
z
" id="DejaVuSans-114"/>
      <path d="M 8.5 21.578125 
L 8.5 54.6875 
L 17.484375 54.6875 
L 17.484375 21.921875 
Q 17.484375 14.15625 20.5 10.265625 
Q 23.53125 6.390625 29.59375 6.390625 
Q 36.859375 6.390625 41.078125 11.03125 
Q 45.3125 15.671875 45.3125 23.6875 
L 45.3125 54.6875 
L 54.296875 54.6875 
L 54.296875 0 
L 45.3125 0 
L 45.3125 8.40625 
Q 42.046875 3.421875 37.71875 1 
Q 33.40625 -1.421875 27.6875 -1.421875 
Q 18.265625 -1.421875 13.375 4.4375 
Q 8.5 10.296875 8.5 21.578125 
z
M 31.109375 56 
z
" id="DejaVuSans-117"/>
      <path d="M 25 67.921875 
Q 21.09375 67.921875 18.40625 65.203125 
Q 15.71875 62.5 15.71875 58.59375 
Q 15.71875 54.734375 18.40625 52.078125 
Q 21.09375 49.421875 25 49.421875 
Q 28.90625 49.421875 31.59375 52.078125 
Q 34.28125 54.734375 34.28125 58.59375 
Q 34.28125 62.453125 31.5625 65.1875 
Q 28.859375 67.921875 25 67.921875 
z
M 25 74.21875 
Q 28.125 74.21875 31 73.015625 
Q 33.890625 71.828125 35.984375 69.578125 
Q 38.234375 67.390625 39.359375 64.59375 
Q 40.484375 61.8125 40.484375 58.59375 
Q 40.484375 52.15625 35.96875 47.6875 
Q 31.453125 43.21875 24.90625 43.21875 
Q 18.3125 43.21875 13.90625 47.609375 
Q 9.515625 52 9.515625 58.59375 
Q 9.515625 65.140625 14 69.671875 
Q 18.5 74.21875 25 74.21875 
z
" id="DejaVuSans-176"/>
      <path d="M 64.40625 67.28125 
L 64.40625 56.890625 
Q 59.421875 61.53125 53.78125 63.8125 
Q 48.140625 66.109375 41.796875 66.109375 
Q 29.296875 66.109375 22.65625 58.46875 
Q 16.015625 50.828125 16.015625 36.375 
Q 16.015625 21.96875 22.65625 14.328125 
Q 29.296875 6.6875 41.796875 6.6875 
Q 48.140625 6.6875 53.78125 8.984375 
Q 59.421875 11.28125 64.40625 15.921875 
L 64.40625 5.609375 
Q 59.234375 2.09375 53.4375 0.328125 
Q 47.65625 -1.421875 41.21875 -1.421875 
Q 24.65625 -1.421875 15.125 8.703125 
Q 5.609375 18.84375 5.609375 36.375 
Q 5.609375 53.953125 15.125 64.078125 
Q 24.65625 74.21875 41.21875 74.21875 
Q 47.75 74.21875 53.53125 72.484375 
Q 59.328125 70.75 64.40625 67.28125 
z
" id="DejaVuSans-67"/>
     </defs>
     <g transform="translate(31.795312 213.7405)rotate(-90)scale(0.1 -0.1)">
      <use xlink:href="#DejaVuSans-116"/>
      <use x="39.208984" xlink:href="#DejaVuSans-101"/>
      <use x="100.732422" xlink:href="#DejaVuSans-109"/>
      <use x="198.144531" xlink:href="#DejaVuSans-112"/>
      <use x="261.621094" xlink:href="#DejaVuSans-101"/>
      <use x="323.144531" xlink:href="#DejaVuSans-114"/>
      <use x="364.257812" xlink:href="#DejaVuSans-97"/>
      <use x="425.537109" xlink:href="#DejaVuSans-116"/>
      <use x="464.746094" xlink:href="#DejaVuSans-117"/>
      <use x="528.125" xlink:href="#DejaVuSans-114"/>
      <use x="569.207031" xlink:href="#DejaVuSans-101"/>
      <use x="630.730469" xlink:href="#DejaVuSans-47"/>
      <use x="664.421875" xlink:href="#DejaVuSans-176"/>
      <use x="714.421875" xlink:href="#DejaVuSans-67"/>
     </g>
    </g>
   </g>
   <g id="line2d_23">
    <path clip-path="url(#p93d8a7dd53)" d="M 57.6 295.488 
L 58.802901 249.232249 
L 59.400109 241.284989 
L 59.997094 229.377568 
L 60.597122 220.137194 
L 61.194238 216.177033 
L 62.392058 202.949559 
L 62.99334 197.669345 
L 63.592315 195.029238 
L 64.192208 189.722085 
L 65.39371 184.441871 
L 65.993479 183.121817 
L 66.591993 176.52155 
L 67.19222 176.52155 
L 67.792277 172.53445 
L 68.392045 169.894343 
L 68.993666 164.614129 
L 69.596016 164.614129 
L 70.197994 161.974022 
L 70.796512 161.974022 
L 71.397268 159.333915 
L 72.607026 179.161657 
L 73.825487 189.722085 
L 74.443969 192.362192 
L 75.051083 198.989399 
L 75.65915 200.309452 
L 76.265913 202.949559 
L 76.877341 204.269612 
L 77.483814 206.909719 
L 78.094231 210.86988 
L 78.701998 212.216873 
L 79.311846 206.909719 
L 79.915094 197.669345 
L 80.516551 181.801764 
L 81.119103 169.894343 
L 82.325886 161.974022 
L 83.536424 151.386655 
L 84.139152 151.386655 
L 84.745778 158.013862 
L 85.347948 154.026762 
L 85.953337 167.254236 
L 86.560008 173.854503 
L 87.166719 175.174557 
L 87.7791 180.48171 
L 88.392629 175.174557 
L 88.997411 176.52155 
L 89.59818 164.614129 
L 90.202096 164.614129 
L 91.410451 151.386655 
L 92.015973 156.666869 
L 92.626222 154.026762 
L 93.237099 167.254236 
L 93.843953 171.214396 
L 94.450442 169.894343 
L 95.053404 169.894343 
L 96.263444 159.333915 
L 96.866989 152.706708 
L 97.475976 148.746548 
L 98.082553 148.746548 
L 98.693087 151.386655 
L 99.302418 160.653969 
L 99.908552 158.013862 
L 100.509794 164.614129 
L 101.129601 165.934183 
L 101.744549 160.653969 
L 102.346022 151.386655 
L 102.95151 150.066601 
L 104.158518 132.878967 
L 105.383211 150.066601 
L 105.993485 151.386655 
L 106.597848 156.666869 
L 107.206636 152.706708 
L 107.820741 158.013862 
L 108.427081 155.346815 
L 109.034176 156.666869 
L 109.642326 164.614129 
L 110.257288 163.294076 
L 110.874974 165.934183 
L 111.490866 163.294076 
L 112.101525 167.254236 
L 112.703165 159.333915 
L 113.304926 168.57429 
L 113.908607 171.214396 
L 114.523097 169.894343 
L 115.129383 172.53445 
L 115.741358 169.894343 
L 116.348338 168.57429 
L 116.967826 168.57429 
L 117.581921 167.254236 
L 118.190812 167.254236 
L 118.796438 165.934183 
L 119.408483 167.254236 
L 120.020762 160.653969 
L 120.628149 167.254236 
L 121.839061 167.254236 
L 122.447157 168.57429 
L 123.057601 168.57429 
L 123.669427 171.214396 
L 124.27749 161.974022 
L 124.887154 168.57429 
L 125.493744 171.214396 
L 126.106078 168.57429 
L 126.71184 169.894343 
L 127.91605 154.026762 
L 128.528842 142.146281 
L 129.12958 148.746548 
L 129.737239 156.666869 
L 130.352083 155.346815 
L 130.958045 152.706708 
L 131.563978 146.106441 
L 132.16991 151.386655 
L 132.774713 154.026762 
L 133.401204 152.706708 
L 134.001578 152.706708 
L 134.608241 150.066601 
L 135.217666 151.386655 
L 135.822236 148.746548 
L 136.428914 148.746548 
L 137.038692 154.026762 
L 137.642391 143.466334 
L 138.847461 128.918806 
L 139.456626 126.278699 
L 140.064041 111.731171 
L 140.664788 128.918806 
L 141.27044 128.918806 
L 141.878445 132.878967 
L 142.481531 135.519073 
L 143.087039 135.519073 
L 144.305041 143.466334 
L 144.944756 138.15918 
L 145.554581 142.146281 
L 146.161895 142.146281 
L 146.771954 146.106441 
L 147.375666 142.146281 
L 147.982015 142.146281 
L 148.59142 143.466334 
L 149.197556 143.466334 
L 149.805157 144.786388 
L 150.407739 144.786388 
L 151.619688 142.146281 
L 152.22321 144.786388 
L 152.828608 146.106441 
L 153.431879 144.786388 
L 154.641891 124.958646 
L 155.247184 119.651492 
L 155.854203 110.411118 
L 157.084458 120.971546 
L 157.694089 122.318539 
L 158.30385 127.598753 
L 158.914071 120.971546 
L 159.519289 124.958646 
L 160.129674 131.558913 
L 160.739672 128.918806 
L 161.349853 132.878967 
L 161.96289 135.519073 
L 162.568049 132.878967 
L 163.170788 126.278699 
L 163.776949 131.558913 
L 164.387413 135.519073 
L 164.996514 131.558913 
L 165.601656 134.19902 
L 166.211202 131.558913 
L 166.820847 135.519073 
L 167.429281 126.278699 
L 168.031932 135.519073 
L 168.640873 139.479234 
L 169.25083 135.519073 
L 169.859194 134.19902 
L 170.47055 136.839127 
L 171.687119 136.839127 
L 172.316498 126.278699 
L 172.921369 120.971546 
L 173.523111 102.463857 
L 174.131909 111.731171 
L 174.7508 115.691332 
L 175.365585 122.318539 
L 175.97738 120.971546 
L 176.581733 124.958646 
L 177.190181 131.558913 
L 177.802925 126.278699 
L 178.414981 130.23886 
L 179.024526 127.598753 
L 179.634861 131.558913 
L 180.242864 128.918806 
L 180.850905 130.23886 
L 181.465374 130.23886 
L 182.074949 128.918806 
L 182.691368 130.23886 
L 183.296722 120.971546 
L 183.899991 128.918806 
L 184.508995 128.918806 
L 185.119758 131.558913 
L 185.728244 127.598753 
L 186.336146 128.918806 
L 186.952101 128.918806 
L 187.571953 122.318539 
L 188.173932 126.278699 
L 188.78533 131.558913 
L 189.391832 120.971546 
L 189.99579 119.651492 
L 191.208752 103.783911 
L 191.81474 102.463857 
L 192.425846 110.411118 
L 193.030875 114.371278 
L 193.645077 117.011385 
L 194.255698 122.318539 
L 195.469882 122.318539 
L 196.080057 126.278699 
L 196.689693 123.638592 
L 197.294573 122.318539 
L 198.513966 122.318539 
L 199.12185 114.371278 
L 199.728373 124.958646 
L 200.951326 122.318539 
L 201.557578 119.651492 
L 202.164308 120.971546 
L 202.769755 118.331439 
L 203.391204 117.011385 
L 204.003564 114.371278 
L 204.608525 115.691332 
L 205.212957 114.371278 
L 205.818512 117.011385 
L 206.422114 110.411118 
L 207.026985 117.011385 
L 207.635017 113.051225 
L 208.853849 113.051225 
L 209.461188 107.771011 
L 210.069929 109.091065 
L 210.674691 99.823751 
L 211.280236 110.411118 
L 211.885426 113.051225 
L 213.70757 113.051225 
L 214.313054 117.011385 
L 214.932601 98.503697 
L 215.535365 105.130904 
L 216.143425 110.411118 
L 216.758164 107.771011 
L 217.365642 111.731171 
L 217.966166 102.463857 
L 218.568793 106.450958 
L 219.177587 107.771011 
L 219.811564 110.411118 
L 220.414398 111.731171 
L 221.018343 111.731171 
L 221.623126 110.411118 
L 222.230266 105.130904 
L 222.838896 110.411118 
L 223.445993 109.091065 
L 224.052336 110.411118 
L 224.659067 110.411118 
L 225.272306 111.731171 
L 225.883449 109.091065 
L 226.499085 105.130904 
L 227.107431 113.051225 
L 227.719106 114.371278 
L 228.327113 114.371278 
L 229.540864 111.731171 
L 230.147326 111.731171 
L 230.761381 114.371278 
L 231.976951 114.371278 
L 233.188679 117.011385 
L 233.797701 114.371278 
L 234.40677 117.011385 
L 235.015769 114.371278 
L 235.653956 110.411118 
L 237.480128 114.371278 
L 238.084876 113.051225 
L 238.695521 109.091065 
L 239.300616 107.771011 
L 239.911682 111.731171 
L 240.521328 110.411118 
L 241.127444 110.411118 
L 241.737174 113.051225 
L 242.347907 107.771011 
L 242.957524 111.731171 
L 243.567177 117.011385 
L 244.1734 111.731171 
L 244.778579 111.731171 
L 245.385238 107.771011 
L 245.989826 113.051225 
L 246.603479 101.143804 
L 247.206896 113.051225 
L 248.415257 94.543537 
L 249.016825 89.263323 
L 249.616179 78.675955 
L 250.222974 81.316062 
L 251.445096 91.90343 
L 252.055936 91.90343 
L 253.277315 94.543537 
L 253.882895 97.183644 
L 254.49406 94.543537 
L 255.107617 102.463857 
L 255.712853 99.823751 
L 256.314392 89.263323 
L 256.916177 82.636116 
L 257.520946 77.355902 
L 258.127658 73.395742 
L 258.736112 79.996009 
L 259.952569 87.943269 
L 260.559396 90.583376 
L 261.164467 89.263323 
L 261.777322 91.90343 
L 262.383363 97.183644 
L 263.004929 95.86359 
L 263.607518 81.316062 
L 264.212172 72.075688 
L 264.814578 70.755635 
L 265.426101 72.075688 
L 266.033268 81.316062 
L 266.643905 85.276223 
L 267.249491 90.583376 
L 267.859595 93.223483 
L 269.083537 95.86359 
L 269.687867 85.276223 
L 270.29073 93.223483 
L 270.898275 95.86359 
L 272.108296 79.996009 
L 272.707281 76.035849 
L 273.30907 70.755635 
L 273.920723 79.996009 
L 274.528677 81.316062 
L 275.142151 87.943269 
L 275.748706 90.583376 
L 276.968248 87.943269 
L 278.185814 95.86359 
L 278.794749 94.543537 
L 279.404113 91.90343 
L 280.016487 93.223483 
L 280.626348 95.86359 
L 281.238379 89.263323 
L 281.843236 83.956169 
L 282.447442 82.636116 
L 283.050847 69.435581 
L 283.655566 69.435581 
L 284.262092 70.755635 
L 284.868871 78.675955 
L 285.477885 81.316062 
L 286.089291 86.623216 
L 286.702911 90.583376 
L 287.31187 86.623216 
L 288.524502 66.768535 
L 289.134012 76.035849 
L 289.742712 78.675955 
L 290.36783 79.996009 
L 290.975009 76.035849 
L 291.586608 83.956169 
L 292.198782 85.276223 
L 292.809991 87.943269 
L 293.420456 87.943269 
L 294.033572 82.636116 
L 294.639734 79.996009 
L 295.247683 83.956169 
L 295.862684 81.316062 
L 296.472457 83.956169 
L 297.693911 83.956169 
L 298.303609 89.263323 
L 298.913858 89.263323 
L 299.524983 93.223483 
L 300.136457 93.223483 
L 300.746066 99.823751 
L 301.358111 102.463857 
L 303.193088 106.450958 
L 303.80229 106.450958 
L 304.41473 107.771011 
L 305.022397 106.450958 
L 305.633952 109.091065 
L 306.243197 107.771011 
L 306.858785 111.731171 
L 307.466399 111.731171 
L 308.075135 110.411118 
L 308.680178 111.731171 
L 309.285708 114.371278 
L 310.507365 111.731171 
L 311.118555 115.691332 
L 311.729483 117.011385 
L 312.343005 117.011385 
L 313.561722 114.371278 
L 314.167319 115.691332 
L 314.779287 115.691332 
L 315.998709 118.331439 
L 316.601998 109.091065 
L 317.202879 103.783911 
L 317.803945 94.543537 
L 318.402908 91.90343 
L 319.006626 85.276223 
L 319.614629 81.316062 
L 320.221774 81.316062 
L 320.829511 89.263323 
L 321.442583 94.543537 
L 322.052833 95.86359 
L 323.258477 95.86359 
L 323.864969 101.143804 
L 325.090225 106.450958 
L 325.693417 103.783911 
L 326.301927 107.771011 
L 326.912313 110.411118 
L 327.517214 109.091065 
L 328.122471 106.450958 
L 328.728976 101.143804 
L 329.331561 101.143804 
L 329.931979 99.823751 
L 330.535313 99.823751 
L 331.144762 102.463857 
L 331.752116 102.463857 
L 332.361639 106.450958 
L 332.967575 107.771011 
L 333.577542 107.771011 
L 334.185251 110.411118 
L 334.801856 109.091065 
L 335.406312 111.731171 
L 336.014618 113.051225 
L 336.626839 110.411118 
L 337.230136 113.051225 
L 337.839614 109.091065 
L 338.447511 113.051225 
L 339.058871 107.771011 
L 340.265374 102.463857 
L 340.86586 95.86359 
L 341.468633 94.543537 
L 342.072244 90.583376 
L 342.678388 97.183644 
L 343.288418 99.823751 
L 344.504439 102.463857 
L 345.114832 105.130904 
L 345.725045 105.130904 
L 346.335197 99.823751 
L 346.94918 99.823751 
L 348.163843 91.90343 
L 348.777138 98.503697 
L 349.422941 95.86359 
L 350.038465 94.543537 
L 350.647792 91.90343 
L 351.254557 93.223483 
L 351.862611 93.223483 
L 352.48106 94.543537 
L 353.089917 93.223483 
L 353.70089 90.583376 
L 354.307576 93.223483 
L 354.916832 89.263323 
L 355.526005 89.263323 
L 356.136307 90.583376 
L 356.748932 86.623216 
L 357.356274 85.276223 
L 357.968175 82.636116 
L 358.575977 87.943269 
L 359.186132 90.583376 
L 359.795755 89.263323 
L 360.404188 85.276223 
L 361.618136 90.583376 
L 362.225099 85.276223 
L 362.833356 87.943269 
L 363.444785 87.943269 
L 364.046009 90.583376 
L 364.656308 91.90343 
L 365.286686 94.543537 
L 365.90349 91.90343 
L 366.514723 94.543537 
L 367.128059 95.86359 
L 368.350048 95.86359 
L 368.977185 98.503697 
L 369.597816 95.86359 
L 370.210096 97.183644 
L 370.813995 91.90343 
L 371.420111 89.263323 
L 372.645695 89.263323 
L 373.255565 82.636116 
L 373.859943 81.316062 
L 375.078273 76.035849 
L 376.28794 68.115528 
L 376.896823 73.395742 
L 377.504372 77.355902 
L 378.120436 78.675955 
L 378.734158 74.715795 
L 379.351945 73.395742 
L 379.957805 76.035849 
L 380.563856 70.755635 
L 381.16829 64.128428 
L 381.775171 64.128428 
L 382.388365 65.448481 
L 383.001432 64.128428 
L 383.605968 57.52816 
L 384.213896 56.208107 
L 385.459781 64.128428 
L 386.678735 61.488321 
L 387.284333 65.448481 
L 387.888415 65.448481 
L 388.494981 62.808374 
L 389.098017 62.808374 
L 389.70622 61.488321 
L 390.311316 53.568 
L 390.922786 64.128428 
L 391.53215 58.848214 
L 392.146893 66.768535 
L 392.754195 64.128428 
L 393.362116 69.435581 
L 393.968674 70.755635 
L 394.577954 74.715795 
L 395.189032 70.755635 
L 395.799642 76.035849 
L 396.410725 72.075688 
L 397.019119 72.075688 
L 397.628714 74.715795 
L 398.240955 78.675955 
L 398.84646 76.035849 
L 400.05657 73.395742 
L 400.673903 74.715795 
L 401.286136 72.075688 
L 401.896242 73.395742 
L 402.505159 77.355902 
L 403.117316 74.715795 
L 403.730754 73.395742 
L 404.338971 74.715795 
L 404.968238 77.355902 
L 405.59535 70.755635 
L 406.200505 74.715795 
L 407.412802 74.715795 
L 408.022758 73.395742 
L 408.637253 68.115528 
L 409.244284 74.715795 
L 409.850047 70.755635 
L 410.45746 76.035849 
L 411.066362 69.435581 
L 411.678773 72.075688 
L 412.291834 77.355902 
L 412.901801 76.035849 
L 413.504174 77.355902 
L 414.114042 79.996009 
L 414.72 73.395742 
L 414.72 73.395742 
" style="fill:none;stroke:#1f77b4;stroke-linecap:square;stroke-width:1.5;"/>
   </g>
   <g id="patch_3">
    <path d="M 57.6 307.584 
L 57.6 41.472 
" style="fill:none;stroke:#000000;stroke-linecap:square;stroke-linejoin:miter;stroke-width:0.8;"/>
   </g>
   <g id="patch_4">
    <path d="M 414.72 307.584 
L 414.72 41.472 
" style="fill:none;stroke:#000000;stroke-linecap:square;stroke-linejoin:miter;stroke-width:0.8;"/>
   </g>
   <g id="patch_5">
    <path d="M 57.6 307.584 
L 414.72 307.584 
" style="fill:none;stroke:#000000;stroke-linecap:square;stroke-linejoin:miter;stroke-width:0.8;"/>
   </g>
   <g id="patch_6">
    <path d="M 57.6 41.472 
L 414.72 41.472 
" style="fill:none;stroke:#000000;stroke-linecap:square;stroke-linejoin:miter;stroke-width:0.8;"/>
   </g>
   <g id="patch_7">
    <path d="M 390.164543 134.823073 
L 390.307706 55.566493 
" style="fill:none;stroke:#000000;stroke-linecap:round;"/>
    <path d="M 392.171765 130.826692 
L 390.164543 134.823073 
L 388.171771 130.819467 
" style="fill:none;stroke:#000000;stroke-linecap:round;"/>
   </g>
   <g id="text_14">
    <g id="patch_8">
     <path d="M 371.591549 165.31555 
L 408.675924 165.31555 
Q 411.675924 165.31555 411.675924 162.31555 
L 411.675924 141.439612 
Q 411.675924 138.439612 408.675924 138.439612 
L 371.591549 138.439612 
Q 368.591549 138.439612 368.591549 141.439612 
L 368.591549 162.31555 
Q 368.591549 165.31555 371.591549 165.31555 
z
" style="fill:#ffffff;stroke:#ff0000;stroke-linejoin:miter;"/>
    </g>
    <!-- highest -->
    <defs>
     <path d="M 54.890625 33.015625 
L 54.890625 0 
L 45.90625 0 
L 45.90625 32.71875 
Q 45.90625 40.484375 42.875 44.328125 
Q 39.84375 48.1875 33.796875 48.1875 
Q 26.515625 48.1875 22.3125 43.546875 
Q 18.109375 38.921875 18.109375 30.90625 
L 18.109375 0 
L 9.078125 0 
L 9.078125 75.984375 
L 18.109375 75.984375 
L 18.109375 46.1875 
Q 21.34375 51.125 25.703125 53.5625 
Q 30.078125 56 35.796875 56 
Q 45.21875 56 50.046875 50.171875 
Q 54.890625 44.34375 54.890625 33.015625 
z
" id="DejaVuSans-104"/>
     <path d="M 45.40625 27.984375 
Q 45.40625 37.75 41.375 43.109375 
Q 37.359375 48.484375 30.078125 48.484375 
Q 22.859375 48.484375 18.828125 43.109375 
Q 14.796875 37.75 14.796875 27.984375 
Q 14.796875 18.265625 18.828125 12.890625 
Q 22.859375 7.515625 30.078125 7.515625 
Q 37.359375 7.515625 41.375 12.890625 
Q 45.40625 18.265625 45.40625 27.984375 
z
M 54.390625 6.78125 
Q 54.390625 -7.171875 48.1875 -13.984375 
Q 42 -20.796875 29.203125 -20.796875 
Q 24.46875 -20.796875 20.265625 -20.09375 
Q 16.0625 -19.390625 12.109375 -17.921875 
L 12.109375 -9.1875 
Q 16.0625 -11.328125 19.921875 -12.34375 
Q 23.78125 -13.375 27.78125 -13.375 
Q 36.625 -13.375 41.015625 -8.765625 
Q 45.40625 -4.15625 45.40625 5.171875 
L 45.40625 9.625 
Q 42.625 4.78125 38.28125 2.390625 
Q 33.9375 0 27.875 0 
Q 17.828125 0 11.671875 7.65625 
Q 5.515625 15.328125 5.515625 27.984375 
Q 5.515625 40.671875 11.671875 48.328125 
Q 17.828125 56 27.875 56 
Q 33.9375 56 38.28125 53.609375 
Q 42.625 51.21875 45.40625 46.390625 
L 45.40625 54.6875 
L 54.390625 54.6875 
z
" id="DejaVuSans-103"/>
    </defs>
    <g transform="translate(371.591549 149.03805)scale(0.1 -0.1)">
     <use xlink:href="#DejaVuSans-104"/>
     <use x="63.378906" xlink:href="#DejaVuSans-105"/>
     <use x="91.162109" xlink:href="#DejaVuSans-103"/>
     <use x="154.638672" xlink:href="#DejaVuSans-104"/>
     <use x="218.017578" xlink:href="#DejaVuSans-101"/>
     <use x="279.541016" xlink:href="#DejaVuSans-115"/>
     <use x="331.640625" xlink:href="#DejaVuSans-116"/>
    </g>
    <!-- 56.6°C -->
    <g transform="translate(371.591549 160.235862)scale(0.1 -0.1)">
     <use xlink:href="#DejaVuSans-53"/>
     <use x="63.623047" xlink:href="#DejaVuSans-54"/>
     <use x="127.246094" xlink:href="#DejaVuSans-46"/>
     <use x="159.033203" xlink:href="#DejaVuSans-54"/>
     <use x="222.65625" xlink:href="#DejaVuSans-176"/>
     <use x="272.65625" xlink:href="#DejaVuSans-67"/>
    </g>
   </g>
   <g id="patch_9">
    <path d="M 108.59975 289.783366 
L 59.587871 295.265644 
" style="fill:none;stroke:#000000;stroke-linecap:round;"/>
    <path d="M 104.402215 288.240413 
L 108.59975 289.783366 
L 104.846867 292.215621 
" style="fill:none;stroke:#000000;stroke-linecap:round;"/>
   </g>
   <g id="text_15">
    <g id="patch_10">
     <path d="M 115.199282 300.567687 
L 149.447719 300.567687 
Q 152.447719 300.567687 152.447719 297.567687 
L 152.447719 276.69175 
Q 152.447719 273.69175 149.447719 273.69175 
L 115.199282 273.69175 
Q 112.199282 273.69175 112.199282 276.69175 
L 112.199282 297.567687 
Q 112.199282 300.567687 115.199282 300.567687 
z
" style="fill:#ffffff;stroke:#0000ff;stroke-linejoin:miter;"/>
    </g>
    <!-- start -->
    <g transform="translate(115.199282 284.290187)scale(0.1 -0.1)">
     <use xlink:href="#DejaVuSans-115"/>
     <use x="52.099609" xlink:href="#DejaVuSans-116"/>
     <use x="91.308594" xlink:href="#DejaVuSans-97"/>
     <use x="152.587891" xlink:href="#DejaVuSans-114"/>
     <use x="193.701172" xlink:href="#DejaVuSans-116"/>
    </g>
    <!-- 47.6°C -->
    <defs>
     <path d="M 8.203125 72.90625 
L 55.078125 72.90625 
L 55.078125 68.703125 
L 28.609375 0 
L 18.3125 0 
L 43.21875 64.59375 
L 8.203125 64.59375 
z
" id="DejaVuSans-55"/>
    </defs>
    <g transform="translate(115.199282 295.488)scale(0.1 -0.1)">
     <use xlink:href="#DejaVuSans-52"/>
     <use x="63.623047" xlink:href="#DejaVuSans-55"/>
     <use x="127.246094" xlink:href="#DejaVuSans-46"/>
     <use x="159.033203" xlink:href="#DejaVuSans-54"/>
     <use x="222.65625" xlink:href="#DejaVuSans-176"/>
     <use x="272.65625" xlink:href="#DejaVuSans-67"/>
    </g>
   </g>
   <g id="text_16">
    <!-- Temperature chart -->
    <defs>
     <path d="M 48.78125 52.59375 
L 48.78125 44.1875 
Q 44.96875 46.296875 41.140625 47.34375 
Q 37.3125 48.390625 33.40625 48.390625 
Q 24.65625 48.390625 19.8125 42.84375 
Q 14.984375 37.3125 14.984375 27.296875 
Q 14.984375 17.28125 19.8125 11.734375 
Q 24.65625 6.203125 33.40625 6.203125 
Q 37.3125 6.203125 41.140625 7.25 
Q 44.96875 8.296875 48.78125 10.40625 
L 48.78125 2.09375 
Q 45.015625 0.34375 40.984375 -0.53125 
Q 36.96875 -1.421875 32.421875 -1.421875 
Q 20.0625 -1.421875 12.78125 6.34375 
Q 5.515625 14.109375 5.515625 27.296875 
Q 5.515625 40.671875 12.859375 48.328125 
Q 20.21875 56 33.015625 56 
Q 37.15625 56 41.109375 55.140625 
Q 45.0625 54.296875 48.78125 52.59375 
z
" id="DejaVuSans-99"/>
    </defs>
    <g transform="translate(179.515312 35.472)scale(0.12 -0.12)">
     <use xlink:href="#DejaVuSans-84"/>
     <use x="60.818359" xlink:href="#DejaVuSans-101"/>
     <use x="122.341797" xlink:href="#DejaVuSans-109"/>
     <use x="219.753906" xlink:href="#DejaVuSans-112"/>
     <use x="283.230469" xlink:href="#DejaVuSans-101"/>
     <use x="344.753906" xlink:href="#DejaVuSans-114"/>
     <use x="385.867188" xlink:href="#DejaVuSans-97"/>
     <use x="447.146484" xlink:href="#DejaVuSans-116"/>
     <use x="486.355469" xlink:href="#DejaVuSans-117"/>
     <use x="549.734375" xlink:href="#DejaVuSans-114"/>
     <use x="590.816406" xlink:href="#DejaVuSans-101"/>
     <use x="652.339844" xlink:href="#DejaVuSans-32"/>
     <use x="684.126953" xlink:href="#DejaVuSans-99"/>
     <use x="739.107422" xlink:href="#DejaVuSans-104"/>
     <use x="802.486328" xlink:href="#DejaVuSans-97"/>
     <use x="863.765625" xlink:href="#DejaVuSans-114"/>
     <use x="904.878906" xlink:href="#DejaVuSans-116"/>
    </g>
   </g>
   <g id="legend_1">
    <g id="patch_11">
     <path d="M 64.6 64.150125 
L 135.767188 64.150125 
Q 137.767188 64.150125 137.767188 62.150125 
L 137.767188 48.472 
Q 137.767188 46.472 135.767188 46.472 
L 64.6 46.472 
Q 62.6 46.472 62.6 48.472 
L 62.6 62.150125 
Q 62.6 64.150125 64.6 64.150125 
z
" style="fill:#ffffff;opacity:0.8;stroke:#cccccc;stroke-linejoin:miter;"/>
    </g>
    <g id="line2d_24">
     <path d="M 66.6 54.570438 
L 86.6 54.570438 
" style="fill:none;stroke:#1f77b4;stroke-linecap:square;stroke-width:1.5;"/>
    </g>
    <g id="line2d_25"/>
    <g id="text_17">
     <!-- thermal -->
     <g transform="translate(94.6 58.070438)scale(0.1 -0.1)">
      <use xlink:href="#DejaVuSans-116"/>
      <use x="39.208984" xlink:href="#DejaVuSans-104"/>
      <use x="102.587891" xlink:href="#DejaVuSans-101"/>
      <use x="164.111328" xlink:href="#DejaVuSans-114"/>
      <use x="205.208984" xlink:href="#DejaVuSans-109"/>
      <use x="302.621094" xlink:href="#DejaVuSans-97"/>
      <use x="363.900391" xlink:href="#DejaVuSans-108"/>
     </g>
    </g>
   </g>
  </g>
 </g>
 <defs>
  <clipPath id="p93d8a7dd53">
   <rect height="266.112" width="357.12" x="57.6" y="41.472"/>
  </clipPath>
 </defs>
</svg>
